<svg width="1920" height="1200" viewBox="0 0 1920 1200" xmlns="http://www.w3.org/2000/svg" xmlns:xlink="http://www.w3.org/1999/xlink" overflow="hidden"><defs><linearGradient x1="0.506" y1="-0.117" x2="0.488" y2="1.712" gradientUnits="objectBoundingBox" id="linear-gradient"><stop offset="0" stop-color="#FFFFFF"/><stop offset="0.003" stop-color="#FFFFFF"/><stop offset="0.367" stop-color="#F2F2FF"/><stop offset="1" stop-color="#9EFAA3"/></linearGradient></defs><rect x="0" y="0" width="1920" height="1200" id="Rectangle_1489" fill="url(#linear-gradient)"/><g id="Group_10604" transform="translate(697.302 397.828)"><path d="M688.1 1191.34C687.55 1192.72 682.585 1193.71 681.665 1194.03 667.365 1198.84 652.894 1203.08 638.306 1206.94 622.54 1211.1 606.638 1214.64 590.6 1217.56 579.671 1219.56 568.688 1221.26 557.65 1222.67 547.829 1223.94 537.978 1224.9 528.131 1225.89 522.07 1226.5 515.972 1226.81 509.881 1226.99 499.061 1227.31 488.252 1228.19 477.421 1227.78 467.221 1227.39 457.008 1227.33 446.832 1226.35 441.676 1225.85 436.487 1225.69 431.343 1225.11 424.081 1224.3 416.815 1223.42 409.606 1222.23 398.184 1220.36 386.829 1218.11 375.634 1215.11 357.915 1210.37 340.686 1204.3 324.359 1195.88 309.229 1188.07 295.289 1178.56 283.346 1166.31 281.857 1164.79 280.491 1163.14 279.081 1161.54 277.707 1159.85 275.591 1158.94 273.42 1159.11 270.681 1159.28 267.913 1159.21 265.2 1159.58 261.716 1159.97 258.214 1160.17 254.709 1160.19 245.872 1160.44 237.035 1160.79 228.194 1160.94 218.279 1161.11 208.406 1160.33 198.529 1159.52 186.542 1158.44 174.647 1156.5 162.937 1153.72 150.725 1150.93 138.809 1147.17 127.737 1141.15 114.137 1133.75 103.347 1123.46 95.995 1109.76 92.1616 1102.29 89.5172 1094.26 88.157 1085.97 86.9849 1079.83 86.4397 1073.58 86.53 1067.33 86.6719 1058.33 88.0364 1049.39 90.586 1040.75 92.7902 1032.81 95.9299 1025.16 99.939 1017.96 106.408 1006.84 115.178 997.801 125.388 990.124 138.363 980.367 152.951 973.965 168.588 969.868 172.561 968.828 176.568 967.911 180.609 967.118 182.153 966.949 183.369 965.723 183.524 964.177 184.515 959.531 186.558 955.174 189.495 951.441 192.249 947.972 195.459 944.891 199.039 942.282 206.552 937.003 215.093 933.368 224.106 931.612 230.362 930.226 236.761 929.588 243.168 929.712 247.43 929.886 251.676 930.354 255.874 931.112 257.707 931.412 258.25 930.988 258.007 929.312 256.297 917.512 259.088 906.512 264.596 896.253 273.991 878.747 288.357 867.115 307.502 861.604 316.749 858.822 326.579 858.605 335.94 860.975 340.513 862.2 344.88 864.093 348.9 866.595 350.913 867.818 350.879 868.23 350.34 870.737 349.709 873.554 349.247 876.407 348.956 879.279 348.522 883.979 349.256 888.703 348.982 893.421 348.797 899.37 349.158 905.324 350.06 911.207 350.707 916.359 349.783 921.541 350.442 926.689 351.059 931.519 351.231 936.409 351.542 941.277 351.639 942.639 351.95 943.977 352.462 945.243 352.908 946.139 352.543 947.227 351.647 947.672 351.393 947.798 351.114 947.863 350.831 947.862 348.721 948.162 346.603 948.435 344.482 948.614 339.626 949.025 334.754 949.295 329.906 949.789 327.331 950.057 324.779 950.513 322.27 951.151 313.576 953.433 304.715 955.025 295.77 955.91 284.063 956.961 272.57 959.277 260.96 960.86 252.516 962.012 244.124 963.56 235.71 964.934 233.75 965.256 231.797 965.656 229.87 964.799 221.67 965.11 214.149 966.947 208.997 974.099 208.728 974.469 208.436 974.825 208.189 975.21 204.066 981.604 202.637 988.645 201.847 996.165 201.493 998.888 201.29 1001.63 201.241 1004.37 201.316 1013.37 202.241 1022.37 202.3 1031.37 202.315 1033.65 201.481 1035.88 202.094 1038.15 202.943 1040.95 203.252 1043.88 203.003 1046.79 202.397 1051.81 202.767 1056.85 202.61 1061.87 202.578 1062.17 202.596 1062.48 202.662 1062.78 204.562 1069 202.067 1075.18 201.382 1081.35 201.012 1084.67 200.215 1087.95 199.682 1091.25 199.491 1092.43 199.087 1093.23 197.782 1093.43 187.089 1095.03 176.55 1097.58 165.782 1098.66 160.782 1099.17 155.755 1099.43 150.742 1099.8 149.98 1099.8 149.22 1099.86 148.467 1099.98 146.716 1100.39 144.43 1100.88 143.903 1102.63 143.334 1104.52 144.625 1106.82 146.14 1108.21 146.657 1108.77 147.283 1109.22 147.981 1109.53 149.452 1109.95 150.706 1110.92 151.481 1112.24 152.211 1113.23 153.236 1113.97 154.41 1114.34 156.655 1115.33 158.993 1117.04 161.436 1117.22 167.836 1117.7 174.258 1116.62 180.636 1116.16 185.336 1115.81 189.989 1114.9 194.659 1114.19 201.734 1113.1 208.801 1112.93 215.869 1111.81 220.231 1111.12 224.583 1110.38 228.949 1109.71 232.26 1109.2 235.567 1108.61 238.901 1108.34 248.928 1107.53 258.872 1105.11 268.851 1103.89 269.867 1103.6 270.929 1104.18 271.224 1105.2 271.236 1105.24 271.248 1105.29 271.257 1105.33 273.876 1112.71 279.177 1117.85 285.429 1122.19 288.266 1123.97 290.891 1126.07 293.252 1128.44 294.597 1129.7 296.266 1130.56 298.071 1130.93 304.509 1132.97 311.395 1133.11 317.915 1131.36 324.432 1129.53 331.122 1129.17 337.752 1128.28 344.846 1127.34 351.962 1126.58 359.07 1125.75 364.817 1125.08 370.578 1124.51 376.31 1123.72 383.699 1122.7 391.077 1121.6 398.444 1120.39 405.811 1119.2 413.151 1117.86 420.507 1116.61 421.262 1116.5 422.024 1116.45 422.786 1116.46 429.49 1116.31 436.177 1115.72 442.802 1114.69 444.307 1114.38 445.868 1114.8 447.022 1115.81 451.601 1119.67 456.94 1122.36 462.163 1125.18 464.632 1126.52 467.146 1128.05 470.357 1127.07 471.696 1126.66 473.346 1127.33 474.857 1127.37 475.589 1127.29 476.123 1126.64 476.049 1125.91 476.027 1125.69 475.953 1125.49 475.834 1125.31 475.202 1124.46 474.488 1123.67 473.701 1122.96 469.814 1119.52 465.497 1116.6 460.857 1114.27 459.791 1113.72 458.743 1113.12 457.617 1112.51 458.1 1111.32 459.158 1111.51 459.881 1111.35 464.629 1110.32 469.339 1110.2 474.248 1109.81 482.284 1109.17 490.272 1107.9 498.264 1106.78 503.992 1105.98 509.698 1104.99 515.403 1104.04 516.424 1103.87 518.142 1103.11 518.744 1103.94 519.647 1104.97 520.438 1106.09 521.105 1107.28 524.049 1113.81 528.068 1119.56 531.076 1126.07 531.959 1127.89 531.345 1128.62 531.503 1129.05 531.803 1129.88 529.636 1129.62 528.794 1129.81 527.159 1130.17 525.509 1129.5 523.878 1129.87 513.878 1132.13 505.104 1137.89 496.895 1143.85 496.186 1144.42 495.58 1145.11 495.103 1145.89 494.929 1146.29 494.929 1146.75 495.103 1147.15 495.305 1147.76 495.94 1148.12 496.566 1147.97 500.076 1147 503.695 1146.5 507.334 1146.46 507.487 1146.46 507.638 1146.44 507.783 1146.39 516.1 1143.41 524.649 1140.89 531.073 1134.28L532.839 1134.48C533.224 1134.5 533.606 1133.58 533.991 1133.6L534.803 1134.55C534.781 1135.14 535.495 1135.83 535.72 1136.29 536.734 1138.5 537.867 1140.65 539.113 1142.73 540.624 1145.16 540.92 1144.67 543.883 1145.04 545.713 1145.27 548.406 1144.45 549.327 1147.14L550.363 1148.33C550.624 1149.06 551.246 1149.61 552.009 1149.79 554.059 1150.01 556.181 1148.82 556.274 1150.89 556.435 1154.44 557.164 1158.87 560.419 1160.1 561.279 1160.41 562.154 1160.67 563.042 1160.88 576.85 1164.49 685.024 1189.88 688.1 1191.34ZM427.031 1135.42C426.118 1135.42 425.205 1135.44 424.296 1135.42 415.889 1135.24 407.589 1137.35 400.284 1141.51 399.624 1141.88 398.997 1142.3 398.41 1142.77 397.827 1143.37 397.839 1144.33 398.437 1144.91 398.516 1144.99 398.604 1145.06 398.698 1145.11 399.088 1145.34 399.515 1145.49 399.959 1145.56 402.226 1145.79 404.497 1146 406.772 1146.14 420.207 1146.98 433.036 1143.95 445.712 1139.98 446.272 1139.76 446.78 1139.43 447.205 1139.01 447.691 1138.33 447.54 1137.4 446.869 1136.91 446.778 1136.84 446.68 1136.79 446.576 1136.74 446.29 1136.65 445.991 1136.59 445.689 1136.58 439.437 1136.83 433.282 1135.39 427.034 1135.43Z" id="Path_10657" fill="#4EDB57" transform="translate(-86.516 -614.627)"/><path d="M2724.07 1103.99C2724.65 1098.39 2725.27 1092.79 2725.77 1087.18 2725.76 1086.09 2726.48 1085.12 2727.54 1084.83 2730.87 1083.77 2734.19 1082.65 2737.57 1081.73 2756.31 1076.73 2775.75 1074.89 2795.09 1076.3 2808.79 1077.23 2822.25 1080.42 2834.92 1085.74 2850.11 1092.15 2864.12 1101.09 2876.34 1112.16 2885.84 1120.54 2894.18 1130.14 2901.14 1140.72 2909.04 1152.72 2914.44 1166.2 2916.99 1180.34 2920.27 1197.7 2917.92 1215.66 2910.3 1231.6 2907.3 1237.95 2903.39 1243.83 2898.68 1249.05 2881.17 1268.43 2859.54 1280.77 2834.16 1286.61 2826.13 1288.39 2818.01 1289.68 2809.82 1290.47 2789.15 1292.63 2768.43 1292.27 2747.71 1291.87 2743.3 1291.78 2738.9 1291.34 2734.49 1291.07 2734.21 1290 2734.23 1288.87 2734.55 1287.82 2735.7 1288.57 2736.83 1288.23 2738.03 1287.87 2740.78 1287.05 2743.48 1286.1 2746.32 1285.53 2753.74 1284.06 2761.08 1282.2 2768.31 1279.98 2772.84 1278.57 2773.79 1277 2773.62 1272.29 2773.61 1271.99 2773.61 1271.68 2773.57 1271.38 2773.28 1268.71 2772.6 1266.09 2773.66 1263.36 2774.2 1261.94 2773.25 1260.73 2771.81 1260.17 2769.99 1259.45 2768.15 1258.77 2766.31 1258.07 2767.03 1253.27 2768.08 1248.52 2769.45 1243.87 2769.67 1243.15 2769.73 1242.39 2769.62 1241.65 2769.51 1240.86 2768.86 1240.27 2768.07 1240.22 2767.45 1240.13 2766.84 1240.46 2766.57 1241.02 2766.12 1241.98 2765.73 1242.97 2765.41 1243.98 2764.11 1248.18 2763.09 1252.46 2762.35 1256.8 2760.72 1256.47 2759.05 1256.27 2757.46 1255.8 2749.3 1253.39 2740.89 1252.16 2732.59 1250.39 2731.83 1250.3 2731.06 1250.53 2730.49 1251.05 2730.28 1251.14 2730.06 1251.19 2729.83 1251.21 2729.83 1251.02 2729.78 1250.84 2729.69 1250.68 2729.82 1249.05 2729.67 1247.41 2729.25 1245.83 2728.7 1240.06 2728.15 1234.3 2727.61 1228.53 2727.85 1227.85 2727.58 1226.97 2728.37 1226.48 2729.6 1227 2729.89 1228.3 2730.61 1229.24 2731.53 1230.44 2732.37 1231.72 2733.35 1232.87 2733.89 1233.45 2734.76 1233.58 2735.45 1233.18 2736.32 1232.78 2736.73 1231.78 2736.41 1230.89 2735.7 1228.88 2734.84 1226.92 2734.17 1224.9 2732.66 1220.27 2731.27 1215.59 2729.73 1210.97 2729.24 1209.05 2728.43 1207.23 2727.33 1205.58 2726.25 1204.1 2725.73 1202.29 2725.86 1200.47 2725.6 1187.67 2724.3 1174.87 2724.15 1162.06 2724 1148.8 2724.69 1135.55 2723.97 1122.3 2723.9 1121.7 2723.8 1121.11 2723.65 1120.53 2723.3 1114.98 2724.03 1109.5 2724.07 1103.99ZM2807.99 1224.32C2809.12 1224.47 2810.26 1224.2 2811.2 1223.56 2814.67 1221.67 2818.04 1219.57 2821.63 1217.95 2828.4 1214.8 2834.56 1210.49 2839.84 1205.22 2841.44 1203.61 2843.15 1202.11 2844.95 1200.72 2846.28 1199.7 2847.52 1198.58 2848.67 1197.37 2849.37 1196.71 2849.49 1195.65 2848.97 1194.85 2848.47 1194.01 2847.82 1194.42 2846.81 1194.34 2845.74 1194.33 2844.68 1194.58 2843.74 1195.09 2838.16 1197.55 2832.73 1199.31 2827.89 1203.09 2820.81 1208.61 2814.28 1214.75 2807.59 1220.72 2807.36 1220.93 2807.17 1221.17 2807.03 1221.43 2806.46 1222.41 2806.79 1223.66 2807.77 1224.22 2807.84 1224.26 2807.91 1224.3 2807.99 1224.33ZM2741.86 1176.98C2741.68 1182.01 2742.3 1187.03 2743.73 1191.85 2745.54 1197.66 2747.89 1203.29 2750.75 1208.66 2750.95 1209.07 2751.19 1209.46 2751.48 1209.82 2752.04 1210.58 2753.04 1210.87 2753.93 1210.53 2754.69 1210.3 2755.21 1209.6 2755.21 1208.81 2755.21 1207.6 2755.12 1206.38 2754.92 1205.19 2754.45 1202.49 2753.9 1199.81 2753.36 1197.13 2751.64 1188.49 2750.05 1179.82 2747.19 1171.45 2746.33 1169.18 2745.71 1166.82 2745.32 1164.42 2745.28 1163.66 2745.02 1162.93 2744.57 1162.31 2744 1161.6 2742.54 1161.49 2742.22 1162.31 2741.49 1164.1 2740.45 1165.88 2741.12 1167.94 2741.88 1170.89 2742.14 1173.95 2741.86 1176.98ZM2801.9 1257.37C2807.04 1257.92 2812.2 1256.61 2817.33 1255.16 2818.2 1254.89 2819.01 1254.48 2819.73 1253.93 2820.46 1253.18 2820.43 1251.97 2819.67 1251.25 2819.63 1251.21 2819.59 1251.17 2819.54 1251.14 2818.62 1250.59 2817.58 1250.3 2816.51 1250.29 2814.08 1250.16 2811.62 1250.2 2809.23 1249.84 2802.05 1248.74 2795 1249.6 2787.93 1250.77 2785.38 1251.15 2782.89 1251.88 2780.53 1252.94 2779.99 1253.2 2779.48 1253.53 2779.01 1253.91 2778.32 1254.56 2778.17 1255.59 2778.64 1256.41 2779.07 1257.06 2779.86 1257.38 2780.62 1257.21 2781.07 1257.15 2781.51 1256.99 2781.89 1256.76 2783.53 1255.62 2785.26 1255.83 2787.13 1256.06 2791.95 1256.63 2796.73 1257.71 2801.9 1257.37ZM2776.84 1149.79C2776.84 1151.01 2776.78 1152.23 2776.86 1153.44 2776.92 1154.35 2777.08 1155.25 2777.35 1156.11 2777.57 1156.88 2778.31 1157.38 2779.1 1157.29 2779.88 1157.24 2780.55 1156.72 2780.79 1155.97 2780.89 1155.69 2780.96 1155.39 2781.01 1155.09 2782.5 1147.02 2783.38 1138.84 2783.64 1130.63 2783.78 1127.13 2783.61 1123.63 2784.33 1120.18 2784.57 1119.28 2784.47 1118.33 2784.06 1117.5 2783.8 1116.93 2783.26 1116.55 2782.64 1116.49 2782.02 1116.39 2781.41 1116.72 2781.15 1117.29 2780.77 1118.28 2780.5 1119.31 2780.33 1120.35 2779.54 1125.31 2778.89 1130.3 2778.03 1135.24 2777.37 1140.07 2776.97 1144.92 2776.84 1149.79ZM2794.51 1170.48C2794.22 1169.59 2793.33 1169.05 2792.4 1169.19 2791.27 1169.64 2790.27 1170.4 2789.53 1171.37 2783.8 1177.27 2777.37 1182.46 2770.4 1186.82 2769.33 1187.41 2768.42 1188.25 2767.74 1189.27 2767.1 1190.24 2767.37 1191.55 2768.35 1192.19 2768.82 1192.5 2769.41 1192.61 2769.96 1192.48 2770.84 1192.25 2771.69 1191.92 2772.5 1191.5 2774.68 1190.42 2776.82 1189.25 2779.01 1188.19 2783.76 1185.9 2787.53 1180.54 2791.11 1176.73 2793.24 1174.47 2793.11 1173.37 2794.52 1170.93 2794.6 1170.82 2794.52 1170.63 2794.51 1170.48ZM2844.46 1236.04C2844.79 1235.4 2844.86 1235.06 2845.07 1234.89 2850.24 1230.67 2855.17 1226.16 2860.62 1222.28 2861.6 1221.57 2862.52 1220.8 2863.39 1219.96 2863.84 1219.51 2863.91 1218.8 2863.54 1218.28 2863.22 1217.55 2862.4 1217.18 2861.64 1217.42 2860.4 1217.97 2859.2 1218.63 2858.08 1219.39 2853.5 1222.4 2849.41 1226.03 2845.13 1229.42 2843.1 1231.03 2840.91 1232.47 2841.33 1235.6 2841.38 1235.95 2840.8 1236.34 2840.65 1236.76 2840.22 1237.66 2840.6 1238.76 2841.51 1239.19 2841.61 1239.24 2841.72 1239.28 2841.82 1239.31 2845.51 1240.75 2849.27 1241.92 2853.3 1241.81 2853.91 1241.82 2854.51 1241.74 2855.09 1241.58 2855.85 1241.36 2856.34 1240.63 2856.26 1239.84 2856.26 1239.22 2855.87 1238.66 2855.28 1238.44 2854.55 1238.25 2853.81 1238.12 2853.06 1238.04 2850.24 1237.59 2847.36 1237.33 2844.46 1236.04ZM2790.86 1226.06C2790.86 1225.25 2790.9 1224.79 2790.85 1224.34 2790.76 1223.72 2790.33 1223.2 2789.74 1223 2789.16 1222.76 2789.44 1222.89 2789.01 1223.37 2788.39 1224.03 2787.85 1224.76 2787.41 1225.55 2786.14 1227.98 2784.01 1230.45 2782.79 1232.9 2781 1236.46 2780.75 1240.23 2779.77 1244.06 2779.54 1244.95 2779.38 1245.84 2779.28 1246.75 2779.19 1247.68 2778.36 1248.58 2779.21 1249.19 2780.32 1249.99 2781.25 1249.29 2782.16 1248.79 2783.45 1247.96 2784.44 1246.73 2784.94 1245.28 2787.35 1239.85 2789.23 1234.2 2790.56 1228.42 2790.7 1227.64 2790.8 1226.85 2790.87 1226.07ZM2806.57 1178.55C2806.6 1179.15 2806.6 1179.76 2806.57 1180.37 2805.91 1186.32 2808.5 1191.35 2811.09 1196.38 2811.38 1197.11 2812.11 1197.57 2812.9 1197.5 2813.86 1197.44 2814.61 1196.66 2814.65 1195.7 2814.74 1194.48 2814.7 1193.26 2814.52 1192.06 2813.5 1185.13 2811.96 1178.3 2810.4 1171.48 2810.23 1170.75 2809.96 1170.04 2809.6 1169.38 2809.16 1168.54 2808.15 1168.16 2807.27 1168.52 2806.51 1168.79 2806.06 1169.57 2806.2 1170.36 2806.91 1173.08 2806.55 1175.81 2806.58 1178.55ZM2767.22 1151.39C2767.18 1150.98 2767.11 1150.57 2767.01 1150.16 2766.85 1149.56 2766.36 1149.11 2765.75 1148.99 2764.98 1148.82 2764.2 1149.24 2763.92 1149.98 2763.75 1150.4 2763.62 1150.83 2763.52 1151.27 2762.21 1156.41 2760.4 1161.4 2758.14 1166.2 2757.57 1167.1 2757.3 1168.16 2757.37 1169.23 2757.47 1170 2758 1170.65 2758.73 1170.9 2759.47 1171.17 2760.29 1170.91 2760.76 1170.28 2761.06 1169.94 2761.3 1169.56 2761.47 1169.14 2762.78 1165.76 2764.2 1162.41 2765.31 1158.96 2766.28 1156.53 2766.92 1153.99 2767.23 1151.39ZM2749.26 1238.49C2748.2 1235.21 2747.36 1231.5 2745.4 1228.21 2745.12 1227.86 2744.77 1227.57 2744.36 1227.39 2743.51 1227.06 2742.56 1227.48 2742.23 1228.32 2742.21 1228.36 2742.2 1228.4 2742.19 1228.44 2742.1 1228.87 2742.12 1229.32 2742.23 1229.75 2743.18 1232.62 2744.16 1235.49 2745.18 1238.35 2745.38 1238.92 2745.68 1239.45 2746.04 1239.93 2746.48 1240.59 2747.31 1240.85 2748.05 1240.57 2748.82 1240.29 2749.25 1239.69 2749.27 1238.49Z" id="Path_10658" fill="#4EDB58" transform="translate(-1736.94 -750.146)"/><path d="M1100.7 1136.03 1099.66 1134.84C1099.73 1132.23 1099.73 1132.24 1097.56 1132.21 1096.36 1132.1 1095.16 1132.09 1093.96 1132.17 1092.27 1132.45 1090.58 1131.65 1089.73 1130.16 1088.89 1128.91 1088.12 1127.62 1087.41 1126.29 1086.67 1124.97 1086.02 1123.61 1085.28 1122.3 1085.01 1121.82 1084.56 1121.97 1084.18 1122.25L1084.32 1122.25C1085.14 1121.35 1084.46 1120.52 1084.12 1119.74 1082.45 1115.98 1080.69 1112.27 1079.01 1108.51 1075.33 1100.31 1071.67 1092.1 1068.02 1083.89 1067.44 1082.48 1066.67 1081.17 1065.72 1079.99 1064.72 1078.65 1063.88 1077.2 1063.24 1075.65 1050.64 1049.26 1038.05 1022.85 1025.47 996.432 1006.86 957.365 988.236 918.304 969.614 879.249 969.218 878.259 968.745 877.3 968.2 876.383 963.845 870.041 965.933 858.615 971.4 853.583 972.487 852.514 973.51 851.382 974.464 850.193 977.264 846.931 980.791 845.415 985.033 846.164 986.529 846.421 988.062 846.36 989.533 845.984 996.071 844.457 1002.79 843.842 1009.5 844.158 1015.16 844.386 1020.75 843.451 1026.36 842.987 1032.58 842.471 1038.8 841.868 1045.02 841.296 1047.59 841.06 1050.19 841.023 1052.61 839.896 1053.62 839.409 1054.83 839.723 1055.47 840.637 1056.51 841.758 1057.29 843.091 1057.75 844.543 1058.86 848.183 1060.12 851.779 1061.27 855.408 1061.97 857.616 1061.15 859.03 1058.94 859.408 1057.89 859.584 1056.81 859.595 1055.76 859.681 1050.59 859.935 1045.42 860.208 1040.26 860.44 1038.12 860.54 1035.99 860.507 1033.85 860.612 1032.95 860.556 1032.04 860.724 1031.21 861.102 1028.36 862.969 1025.15 862.969 1021.96 863.085 1018.77 863.201 1015.55 863.141 1012.36 863.366 1009.48 863.566 1006.62 864.036 1003.76 864.429 1003.1 864.551 1002.66 865.188 1002.78 865.85 1002.81 865.969 1002.85 866.084 1002.9 866.191 1003.22 867.044 1003.62 867.875 1003.98 868.713 1007.18 875.964 1010.35 883.229 1013.58 890.465 1016.8 897.701 1020.08 904.903 1023.34 912.12 1025.52 918.029 1028.09 923.791 1031.01 929.371 1031.29 930.224 1031.51 931.103 1031.87 931.923 1036.97 943.566 1042.09 955.203 1047.22 966.834 1047.65 967.792 1048.24 968.675 1048.75 969.591 1049.25 971.615 1049.81 973.546 1051.83 974.743 1052.5 975.143 1052.87 976.131 1053.28 976.906 1053.91 978.081 1054.45 979.3 1055.02 980.498 1055.06 980.795 1055.13 981.087 1055.23 981.37 1065.9 1005.95 1076.59 1030.53 1087.28 1055.1 1089.23 1059.55 1090.78 1064.2 1093.38 1068.35 1093.42 1069.41 1093.74 1070.43 1094.3 1071.33 1096.42 1076.13 1098.6 1080.92 1100.75 1085.71 1104.89 1094.64 1109.01 1103.59 1113.18 1112.51 1113.89 1114.03 1114.49 1114.35 1116.07 1113.93 1119.73 1112.97 1123.45 1112.23 1127.2 1111.72 1135.16 1110.57 1142.89 1108.27 1150.87 1107.2 1155.06 1106.48 1159.34 1106.43 1163.55 1107.04 1163.54 1107.03 1163.53 1107.01 1163.52 1106.99 1163.65 1107.45 1164.07 1107.76 1164.55 1107.74 1169.27 1110.54 1173.3 1114.38 1176.32 1118.96 1177.34 1120.31 1178.58 1121.46 1179.99 1122.37 1190.06 1129.78 1200.64 1136.47 1211.66 1142.39 1216.68 1144.95 1221.91 1147.09 1227.29 1148.79 1236.55 1151.83 1245.66 1155.27 1255.2 1157.45 1261.9 1158.94 1268.67 1160.02 1275.49 1160.68 1290.19 1162.25 1304.96 1163 1319.74 1162.94 1325.52 1163.37 1331.31 1163.46 1337.1 1163.19 1337.86 1163.14 1338.61 1162.93 1339.37 1162.94 1345.53 1163.04 1351.42 1161.51 1357.37 1160.17 1370 1157.32 1382.68 1154.68 1395.36 1152.09 1403.42 1150.44 1411.56 1149.2 1419.6 1147.47 1430.17 1145.19 1440.65 1142.45 1451.21 1140.17 1462.38 1137.76 1473.61 1135.63 1484.81 1133.41 1501.85 1130.03 1518.89 1126.66 1535.93 1123.3 1537.42 1123 1538.88 1122.57 1540.36 1122.2 1542.92 1121.56 1544.46 1122.74 1543.87 1125.16 1543.38 1127.86 1543.23 1130.61 1543.43 1133.35 1543.46 1137.93 1543.57 1142.5 1543.52 1147.07 1543.35 1150.27 1543.51 1153.48 1543.99 1156.65 1544.05 1156.95 1544.09 1157.25 1544.12 1157.55 1544.23 1159.84 1543.53 1161.02 1541.34 1161.65 1539 1162.32 1536.61 1162.82 1534.23 1163.37 1531.12 1164.07 1527.97 1164.68 1524.87 1165.45 1508.31 1169.6 1491.66 1173.27 1474.9 1176.47 1468.32 1177.74 1461.83 1179.44 1455.3 1180.95 1437.93 1184.95 1420.53 1188.79 1403.22 1193 1388.56 1196.56 1373.88 1199.04 1359.15 1202.23 1356.46 1202.79 1353.75 1203.21 1351.02 1203.48 1349.36 1203.72 1347.67 1203.7 1346.02 1203.4 1338.18 1201.59 1330.19 1201.58 1322.47 1199.04 1310.75 1195.19 1298.61 1192.83 1286.56 1190.16 1277.05 1188.05 1267.6 1185.64 1258.13 1183.31 1248.81 1181.03 1239.51 1178.69 1230.19 1176.39 1229.74 1176.31 1229.28 1176.28 1228.82 1176.28 1226.8 1175.1 1224.48 1175.02 1222.27 1174.51 1212.35 1172.21 1202.38 1170.08 1192.67 1166.91 1188.1 1165.5 1183.42 1164.42 1178.69 1163.7 1171.18 1162.42 1163.76 1159.82 1156.38 1157.98 1148.56 1156.04 1140.72 1154.14 1132.96 1151.99 1129.91 1151.08 1126.8 1150.34 1123.66 1149.78 1119.47 1149.03 1115.38 1147.79 1111.47 1146.1 1108.6 1145.18 1106.75 1142.4 1107 1139.39 1107.03 1138.13 1107.57 1136.72 1106.56 1135.45 1104.73 1136.32 1102.66 1136.52 1100.7 1136.03Z" id="Path_10659" fill="#646464" transform="translate(-636.864 -602.315)"/><path d="M383.84 302.708C383.84 300.953 384.734 299.498 385.445 297.986 390.251 288.071 397.046 279.251 405.409 272.077 419.525 259.577 435.837 250.822 453.418 244.286 466.008 239.653 479.04 236.322 492.309 234.345 505.123 232.331 518.117 231.705 531.066 232.478 544.943 233.361 558.606 235.647 571.716 240.507 574.855 241.671 577.908 243.074 580.98 244.417 581.923 244.829 581.392 245.547 580.88 246.617 579.297 249.966 579.526 253.527 579.294 257.205 579.17 257.801 579.104 258.407 579.099 259.016 579.836 263.854 579.065 268.716 579.443 273.57 579.836 278.58 579.795 283.627 579.877 288.655 579.877 290.485 580.172 292.303 580.749 294.039 581.681 296.733 583.51 299.367 586.271 299.909 591.202 300.878 596.171 300.717 601.206 300.829 604.406 300.9 607.611 300.818 610.814 300.799 614.847 300.777 614.926 300.885 613.714 304.933 611.613 311.638 608.412 317.947 604.241 323.602 597.992 332.093 590.422 339.527 581.819 345.62 568.547 355.155 553.887 362.591 538.352 367.664 526.665 371.639 514.622 374.481 502.39 376.149 496.497 376.949 490.605 377.627 484.663 377.878 482.991 377.822 481.318 377.784 479.646 377.706 478.684 377.661 478.228 376.932 478.782 376.191 481.509 372.536 482.624 368.308 483.35 363.912 483.677 362.884 483.501 361.763 482.875 360.885 481.897 359.664 481.641 358.016 482.202 356.556 482.682 354.476 482.879 352.34 482.789 350.207 482.826 344.872 482.8 339.537 482.826 334.201 482.727 332.834 482.792 331.46 483.021 330.108 484.48 324.399 483.556 318.775 481.603 313.53 479.725 308.487 475.939 304.902 470.027 304.573 468.503 304.568 466.98 304.478 465.466 304.304 458.993 303.204 452.42 303.129 445.925 302.991 434.372 302.744 422.788 302.291 411.225 303.44 407.123 303.721 403.003 303.578 398.931 303.013 393.938 302.492 388.868 302.78 383.84 302.708Z" id="Path_10660" fill="#4EDB57" transform="translate(-272.6 -222.09)"/><path d="M2534.43 265.985C2536.13 264.069 2538 262.27 2539.5 260.205 2540.6 258.526 2542.52 257.557 2544.52 257.657 2546.05 257.665 2586.78 256.864 2589.63 256.026 2590.98 255.782 2592.36 255.724 2593.73 255.854 2604.4 255.821 2615.07 255.792 2625.75 255.768 2627.57 255.826 2629.4 255.646 2631.18 255.233 2632.67 254.95 2634.2 254.854 2635.72 254.949 2652.79 254.908 2691.46 254.713 2693.73 254.249 2697.58 253.387 2701.59 253.544 2705.35 254.705 2706.36 255.027 2707.31 256.538 2708.34 256.729 2710.9 257.204 2712.14 258.869 2713.07 261.129 2716.25 268.889 2715.74 297.488 2715.75 299.908 2715.77 302.808 2715.68 317.661 2715.79 319.472 2713.53 327.55 2714.04 330.947 2703.67 332.481 2699.19 333.143 2694.67 334.06 2690.07 333.581 2689.77 333.595 2689.46 333.589 2689.16 333.562 2684.45 332.417 2655.77 334.539 2647.38 334.562 2645.7 334.562 2617.85 334.487 2616.93 334.517 2614.35 334.534 2611.78 334.764 2609.23 335.205 2606.66 335.538 2604.07 335.607 2601.48 335.411 2599.22 335.34 2596.98 335.919 2595.03 337.08 2585.03 342.88 2575.15 348.871 2565.39 355.053 2556.14 360.905 2546.89 366.771 2537.32 372.121 2534 373.98 2530.59 375.664 2527.28 377.531 2524.24 379.248 2521.37 381.265 2518.4 383.106 2517.37 383.752 2516.29 384.305 2515.16 384.756 2514.44 385.078 2513.59 384.912 2513.05 384.341 2512.41 383.635 2512.33 382.596 2512.83 381.793 2513.2 381.133 2513.7 380.55 2514.29 380.076 2515.12 379.417 2516.01 378.816 2516.93 378.276 2522.3 374.969 2542.28 355.566 2542.59 355.225 2542.88 354.899 2547.82 351.042 2549.89 349.085 2552.31 346.799 2561.94 338.059 2561.65 337.113 2561.26 335.901 2560.21 335.62 2559.11 335.572 2558.21 335.468 2557.29 335.519 2556.4 335.725 2553.57 336.638 2550.69 336.316 2547.81 336.391 2545.66 336.418 2543.56 335.782 2541.79 334.569 2538.63 332.405 2536.35 329.175 2535.37 325.469 2533.25 318.6 2533.06 311.604 2533.48 304.383 2533.64 301.805 2532.71 276.162 2533.05 274.029 2533.48 271.332 2534.64 268.772 2534.43 265.985Z" id="Path_10661" fill="#CCFACF" transform="translate(-1604.85 -235.584)"/><path d="M308.237 417.884C314.732 418.022 321.309 418.097 327.778 419.197 329.292 419.371 330.815 419.461 332.339 419.466 337.935 419.665 342.869 423.193 344.869 428.423 346.822 433.665 347.742 439.292 346.287 445.001 345.958 446.301 346.092 459.764 346.055 465.101 346.04 467.226 345.845 477.701 345.662 478.801 344.936 483.201 345.726 487.425 343.002 491.08 342.448 491.821 338.928 494.152 337.184 495.368 334.034 497.56 320.505 498.103 318.833 498.159 318.238 498.178 317.565 498.152 317.239 498.78 316.779 499.663 345.812 525.673 350.709 529.766 354.319 532.785 358.046 535.666 361.783 538.521 364.018 540.36 366.119 542.356 368.072 544.492 368.291 544.704 368.448 544.972 368.528 545.266 368.592 545.547 368.538 545.842 368.378 546.082 368.177 546.29 367.886 546.386 367.6 546.34 365.325 545.124 363.064 543.879 360.817 542.606 354.195 538.868 347.584 535.106 340.958 531.374 337.909 529.657 334.837 527.984 331.769 526.297 322.034 520.947 312.28 515.634 302.569 510.243 295.921 506.554 289.313 502.783 282.717 499.004 279.609 497.068 275.998 496.092 272.338 496.198 265.638 496.49 258.925 496.307 252.217 496.277 249.183 496.262 240.417 495.443 239.051 495.439 221.366 495.413 177.824 494.639 173.91 493.422 169.987 492.408 166.817 489.522 165.44 485.711 165.234 485.142 163.94 484.574 163.91 483.994 163.618 478.236 164.61 455.204 164.737 449.439 164.793 447.011 165.145 428.487 165.758 424.596 165.766 424.291 165.846 423.993 165.99 423.724 168.336 420.735 170.502 417.315 174.651 416.806 179.309 416.234 183.971 415.406 188.719 415.781 191.14 415.972 296.684 417.637 308.237 417.884Z" id="Path_10662" fill="#CCFACF" transform="translate(-134.921 -336.967)"/><path d="M1140.83 206.4C1148.61 206.4 1156.38 206.4 1164.15 206.4 1166.29 206.375 1168.41 206.523 1170.52 206.841 1172.48 207.161 1174.47 207.161 1176.43 206.841 1178.54 206.524 1180.66 206.374 1182.79 206.392 1189.35 206.317 1195.93 206.564 1202.45 206.078 1207.93 205.678 1213.38 205.427 1218.86 205.412 1225.26 205.393 1231.7 205 1238.06 205.573 1250.08 206.654 1262.11 205.925 1274.14 206.373 1277.94 206.515 1281.76 206.373 1285.56 206.306 1288.94 206.277 1292.24 207.212 1295.1 209 1296.57 209.836 1297.67 211.192 1298.19 212.8 1299.14 215.209 1299.69 217.761 1299.8 220.35 1299.76 225.068 1301.12 229.722 1300.56 234.459 1299.83 240.651 1301.14 247.876 1300.12 254.053 1299.82 255.838 1298.94 256.753 1299.02 258.576 1299.15 261.569 1297.6 263.488 1295.16 264.783 1292.59 266.135 1289.71 266.811 1286.81 266.747 1279.19 266.676 1271.57 266.702 1263.94 266.736 1260.9 266.615 1257.85 266.794 1254.84 267.271 1253.48 267.458 1252.1 267.426 1250.76 267.177 1245.14 266.462 1239.5 266.915 1233.87 266.792 1232.53 266.762 1233.01 267.592 1233.35 268.951 1233.39 269.098 1233.43 269.243 1233.49 269.385 1235.62 275.394 1235.98 281.724 1239.58 287.149 1239.74 287.406 1239.88 287.68 1239.98 287.965 1240.39 288.809 1240.25 289.818 1239.63 290.517 1238.87 291.311 1237.73 291.588 1236.69 291.224 1235.72 290.774 1234.89 290.065 1234.29 289.174 1232.63 286.996 1230.94 284.834 1229.34 282.608 1226.04 277.995 1221.83 274.22 1217.9 270.179 1216.08 268.308 1213.81 267.848 1211.31 267.508 1201.14 266.127 1190.92 266.808 1180.73 266.756 1161.53 266.656 1142.32 267.699 1123.11 267.721 1120.22 267.721 1117.35 266.849 1114.47 267.321 1111.74 267.598 1109 267.701 1106.26 267.628 1103.07 267.728 1101.1 266.004 1099.94 263.269 1098.51 260.062 1097.72 256.603 1097.63 253.092 1097.58 247.925 1096.46 242.792 1097.24 237.603 1097.89 233.274 1097.46 228.781 1097.49 224.362 1097.5 222.076 1098.44 219.79 1098.44 217.504 1098.45 212.629 1101.22 209.64 1105.3 207.578 1105.7 207.365 1106.15 207.246 1106.61 207.23 1110.12 207.189 1113.52 206.209 1117.05 206.268 1124.98 206.403 1132.91 206.309 1140.83 206.309 1140.83 206.339 1140.83 206.37 1140.83 206.4Z" id="Path_10663" fill="#FFDD7B" transform="translate(-718.916 -205.272)"/><path d="M2607.2 1305.05C2607.44 1306.09 2607.58 1307.15 2607.62 1308.21 2607.66 1311.54 2606.81 1312.45 2603.3 1312.4 2600.62 1312.35 2598.27 1313.56 2595.73 1313.96 2593.83 1314.26 2593.58 1314.19 2593.14 1312.46 2590.84 1303.47 2589.01 1294.39 2587.55 1285.22 2586.5 1278.62 2585.02 1272.09 2583.79 1265.51 2583.21 1262.37 2582.6 1259.23 2582.29 1256.06 2581.75 1250.3 2580.69 1244.62 2579.83 1238.91 2579.38 1235.91 2578.9 1232.9 2578.66 1229.87 2578.08 1222.74 2576.87 1215.7 2575.97 1208.61 2575.17 1202.28 2574.6 1195.91 2573.86 1189.57 2573.41 1185.64 2572.82 1181.74 2572.32 1177.82 2571.89 1174.5 2571.85 1171.16 2571.41 1167.82 2570.68 1162.41 2570.77 1156.89 2570.22 1151.44 2569.48 1144.16 2569.35 1136.86 2569.16 1129.55 2569 1127.13 2568.7 1124.71 2568.27 1122.32 2568.24 1122.1 2567.9 1121.84 2567.65 1121.77 2567.37 1121.71 2567.07 1121.78 2566.84 1121.96 2566.12 1122.76 2565.71 1123.79 2565.69 1124.87 2564.53 1125.96 2564.25 1127.48 2563.7 1128.88 2560.89 1136.05 2554.98 1158.24 2554.77 1158.99 2551.93 1169.56 2549.75 1180.29 2548.23 1191.13 2547.82 1194.01 2547.64 1196.87 2547.44 1199.75 2547.14 1204.15 2545.9 1208.55 2545.31 1212.92 2545.02 1215.03 2544.91 1217.15 2544.69 1219.26 2544.24 1223.8 2544.68 1228.32 2544.1 1232.84 2543.71 1235.85 2543.6 1238.89 2543.15 1241.91 2542.41 1247.01 2542.29 1252.21 2541.84 1257.36 2541.52 1261.15 2541.08 1264.92 2540.68 1268.7 2540.57 1269.76 2541.32 1270.8 2541.25 1271.86 2540.37 1285.39 2540.6 1298.62 2539.36 1312.49 2539.39 1313.56 2538.41 1314.63 2538.31 1315.68 2538.22 1316.79 2537.39 1317.69 2536.29 1317.87 2535.85 1317.97 2535.39 1318.02 2534.93 1318.01 2530.67 1318.01 2526.4 1318.03 2522.13 1317.96 2520.42 1317.93 2520.07 1317.48 2519.96 1315.71 2519.92 1315.11 2519.94 1314.49 2519.94 1313.89 2519.96 1296.66 2519.98 1279.44 2520 1262.22 2521.22 1254.53 2520.25 1246.7 2521.55 1239.02 2521.63 1238.57 2521.65 1238.11 2521.64 1237.65 2521.37 1230.17 2522.34 1222.75 2522.87 1215.32 2523.24 1210.19 2523.16 1204.98 2524.3 1199.9 2524.43 1199.15 2524.5 1198.39 2524.49 1197.63 2524.7 1191.85 2525.59 1186.13 2526.11 1180.38 2526.64 1174.47 2527.45 1168.6 2528.21 1162.73 2528.85 1157.76 2529.69 1152.82 2530.46 1147.86 2531.54 1140.96 2532.58 1134.05 2533.76 1127.16 2534.55 1122.52 2535.47 1117.9 2536.45 1113.29 2537.65 1107.65 2538.98 1102.04 2540.3 1096.16 2541.99 1096.23 2543.67 1096.4 2545.33 1096.69 2549.38 1097.65 2553.5 1097.54 2557.6 1097.59 2560.5 1097.64 2563.39 1097.59 2566.29 1097.55 2575.27 1097.45 2584.19 1096 2592.75 1093.24 2596.99 1091.87 2597.04 1091.9 2596.97 1096.33 2596.94 1098.9 2597.72 1101.44 2597.3 1104.03 2596.75 1107.41 2595.67 1110.96 2596.65 1114.38 2596.6 1119.88 2595.88 1125.36 2596.23 1130.87 2595.83 1139.8 2596.28 1148.75 2596.05 1157.7 2595.87 1164.39 2596.06 1171.08 2596.09 1177.77 2596.03 1178.68 2596.06 1179.6 2596.18 1180.5 2597.18 1185.47 2596.75 1190.5 2596.88 1195.5 2596.84 1197.63 2596.91 1199.76 2597.09 1201.88 2597.9 1207.9 2597.64 1213.92 2597.87 1219.98 2597.89 1220.59 2597.94 1221.2 2598.02 1221.8 2598.86 1226.89 2599.43 1232.02 2599.74 1237.17 2599.82 1237.76 2599.97 1238.33 2600.18 1238.89 2600.72 1244.66 2601.24 1259.49 2602.26 1261.03 2602.34 1261.19 2606.94 1303.84 2607.2 1305.05Z" id="Path_10664" fill="#FFDD7B" transform="translate(-1609.51 -760.522)"/><path d="M2382.83 284.877C2383.05 287.664 2381.88 290.227 2381.45 292.91 2381.06 294.999 2381.06 297.142 2381.44 299.233 2382.22 303.266 2382.23 307.409 2381.47 311.445 2381.24 312.79 2381.1 314.149 2381.06 315.512 2380.98 318.094 2382.04 320.686 2381.89 323.26 2381.47 330.481 2381.66 337.473 2383.78 344.346 2384.75 348.052 2387.03 351.282 2390.2 353.446 2391.97 354.662 2394.07 355.299 2396.22 355.268 2399.09 355.193 2401.98 355.515 2404.81 354.602 2405.7 354.395 2406.62 354.343 2407.52 354.449 2408.62 354.494 2409.67 354.778 2410.06 355.99 2410.33 356.892 2410.05 357.869 2409.36 358.5 2408.29 359.581 2407.22 360.67 2406.06 361.639 2403.49 363.772 2400.72 365.68 2398.3 367.966 2396.23 369.923 2396.63 371.221 2393.9 371.82 2392.61 371.961 2391.32 372.176 2390.05 372.464 2385 373.545 2379.95 374.701 2374.88 375.689 2370.7 376.501 2366.45 376.889 2362.22 377.376 2356.31 377.983 2350.37 378.208 2344.43 378.049 2334.68 377.91 2324.98 376.716 2315.49 374.487 2314.9 374.349 2314.29 374.244 2313.72 374.06 2311.82 373.465 2311.51 373.147 2311.45 371.172 2311.27 365.994 2311.08 360.801 2311.99 355.672 2312.47 353.12 2312.34 350.489 2311.59 348.002 2311.23 346.838 2310.97 345.641 2310.52 344.511 2309.82 342.719 2310.2 340.545 2308.37 339.138 2305.45 336.897 2302.57 334.656 2298.73 334.297 2297.82 334.211 2296.91 334.166 2295.99 334.144 2287.92 333.938 2279.85 333.736 2271.78 333.538 2270.58 333.508 2270.24 333.1 2270.29 331.843 2270.51 329.411 2271.16 327.037 2272.22 324.832 2275.31 317.458 2280.53 311.771 2286.69 306.877 2294.29 300.987 2302.78 296.336 2311.83 293.094 2323.7 288.718 2336.07 285.872 2348.65 284.624 2357.15 283.88 2365.68 283.678 2374.21 284.018 2377.08 284.072 2379.95 284.573 2382.83 284.877Z" id="Path_10665" fill="#4EDB57" transform="translate(-1453.26 -254.475)"/><path d="M2211.24 1228.8C2218.65 1225.44 2226.52 1223.71 2234.47 1222.31 2235.07 1222.21 2235.68 1222.18 2236.29 1222.22 2237.05 1222.19 2237.69 1222.78 2237.72 1223.54 2237.72 1223.58 2237.72 1223.62 2237.72 1223.66 2237.77 1224.57 2237.77 1225.48 2237.77 1226.4 2237.79 1227.77 2237.83 1229.14 2237.8 1230.51 2237.65 1232.07 2238.4 1233.57 2239.72 1234.4 2241.38 1235.43 2242.17 1236.6 2240.88 1238.45 2240.78 1238.73 2240.79 1239.05 2240.91 1239.32 2241.1 1239.99 2241.68 1240.45 2242.26 1240.19 2243.69 1239.68 2245.02 1238.94 2246.2 1237.99 2248.81 1235.44 2251.2 1232.67 2253.66 1229.97 2253.85 1229.73 2253.98 1229.45 2254.06 1229.16 2254.26 1228.57 2254.1 1227.92 2253.64 1227.49 2253.17 1227.03 2252.56 1226.76 2252.01 1227.16 2250.66 1228.14 2249.37 1229.2 2248.09 1230.28 2247.5 1230.76 2247.04 1231.39 2246.44 1231.85 2245.55 1232.54 2244.94 1234.26 2243.58 1233.47 2242.73 1232.97 2243.02 1231.46 2243.28 1230.45 2243.99 1227.81 2244.8 1225.2 2245.65 1222.6 2245.89 1221.85 2246.58 1221.33 2247.37 1221.3 2247.82 1221.26 2248.28 1221.24 2248.74 1221.22 2257.41 1220.95 2266.1 1221.59 2274.64 1223.12 2276.33 1223.42 2276.63 1224.19 2275.61 1225.64 2274.56 1227.13 2273.45 1228.58 2272.4 1230.08 2271.93 1230.75 2271.73 1231.53 2272.56 1232.04 2273.25 1232.45 2274.14 1232.25 2274.59 1231.58 2276.1 1229.87 2277.51 1228.07 2278.82 1226.2 2279.85 1224.6 2281.06 1224.45 2282.69 1224.85 2288.45 1226.3 2294.11 1228.09 2299.66 1230.21 2302.36 1231.23 2305.05 1232.28 2307.77 1233.28 2309.3 1233.84 2309.54 1233.75 2310.28 1232.34 2316.09 1221.27 2325.29 1213.3 2334.68 1205.5 2334.87 1205.33 2335.24 1205.39 2335.55 1205.33 2336.25 1206.33 2335.8 1207.37 2335.6 1208.35 2334.05 1215.96 2332.99 1223.64 2332.04 1231.34 2331.33 1237.08 2330.37 1242.78 2329.71 1248.52 2328.89 1255.62 2328.26 1262.74 2327.54 1269.86 2327.03 1275 2326.38 1280.14 2326.04 1285.3 2325.56 1292.73 2324.52 1300.15 2324.87 1307.63 2324.96 1309.6 2324.85 1311.59 2324.81 1313.57 2324.89 1314.35 2324.49 1315.1 2323.81 1315.47 2322 1313.82 2319.66 1312.86 2317.21 1312.78 2313.88 1312.56 2310.55 1312.17 2307.25 1311.61 2300.97 1310.52 2294.68 1309.37 2288.45 1307.99 2284.3 1307.08 2280.03 1306.69 2276.02 1305.15 2277.14 1304.4 2278.26 1303.63 2279.39 1302.89 2282.63 1300.92 2285.57 1298.52 2288.16 1295.75 2288.89 1295.14 2289.03 1294.07 2288.47 1293.29 2287.96 1292.32 2286.84 1291.83 2285.78 1292.1 2285.05 1292.29 2284.35 1292.59 2283.63 1292.83 2282.66 1293.25 2281.65 1293.56 2280.62 1293.77 2274.85 1294.38 2269.48 1296.48 2264.01 1298.2 2262.15 1298.79 2260.25 1299.41 2258.97 1301.07 2255.68 1300.69 2252.45 1299.88 2249.37 1298.67 2247.5 1298.03 2246.16 1298.31 2245.06 1299.91 2244.63 1299.78 2244.2 1299.66 2243.78 1299.52 2241.67 1298.82 2239.34 1298.46 2237.5 1297.31 2235.71 1296.19 2235.94 1293.55 2234.81 1291.8 2234.63 1291.56 2234.42 1291.35 2234.2 1291.16 2234.28 1289.79 2234.04 1288.43 2233.48 1287.18 2231.15 1281.06 2228.9 1274.9 2226.68 1268.75 2223.27 1259.3 2219.9 1249.83 2215.27 1240.86 2213.2 1237.12 2211.84 1233.03 2211.24 1228.8ZM2305.12 1237.62C2305.09 1237 2304.76 1236.44 2304.23 1236.12 2303.54 1235.73 2302.67 1235.9 2302.17 1236.52 2301.75 1236.95 2301.47 1237.52 2301.08 1237.98 2294.3 1246.01 2290.17 1255.52 2285.88 1264.95 2285.75 1265.23 2285.65 1265.51 2285.58 1265.81 2285.37 1266.4 2285.52 1267.05 2285.95 1267.5 2286.43 1267.89 2287.07 1268 2287.65 1267.79 2288.1 1267.7 2288.52 1267.51 2288.89 1267.23 2293.19 1263.36 2297.6 1259.61 2300.17 1254.2 2302.61 1249.06 2303.47 1243.45 2305.1 1238.07 2305.12 1237.92 2305.13 1237.77 2305.12 1237.61ZM2258.02 1260.88C2257.82 1260.53 2257.57 1260.21 2257.28 1259.93 2257.03 1259.77 2256.71 1259.74 2256.43 1259.85 2255.89 1260.09 2255.4 1260.46 2255.02 1260.91 2252.18 1265.11 2248.58 1268.61 2245.04 1272.19 2240.15 1277.1 2239.16 1283.74 2237.54 1290.06 2237.49 1290.69 2237.88 1291.28 2238.5 1291.47 2239.06 1291.75 2239.74 1291.61 2240.16 1291.14 2240.63 1290.55 2241.07 1289.93 2241.48 1289.29 2243.28 1286.65 2244.95 1283.9 2246.91 1281.37 2251.52 1275.41 2254.65 1268.64 2257.83 1261.89 2257.94 1261.56 2258 1261.22 2258.03 1260.88ZM2276.4 1268.85C2276.34 1267.57 2276.35 1266.5 2276.19 1265.45 2276.06 1265.02 2275.74 1264.69 2275.32 1264.53 2274.89 1264.43 2274.44 1264.51 2274.08 1264.77 2273.62 1265.15 2273.26 1265.65 2273.04 1266.21 2270.68 1271.98 2268.88 1277.97 2267.66 1284.08 2267.56 1284.83 2267.54 1285.59 2267.61 1286.35 2267.65 1286.97 2268.05 1287.52 2268.64 1287.75 2269.22 1287.99 2269.89 1287.85 2270.32 1287.39 2271.41 1286.33 2272.29 1285.06 2272.89 1283.66 2274.79 1278.92 2275.97 1273.93 2276.4 1268.84ZM2262.78 1247.24C2263.37 1247.2 2263.68 1247.19 2263.98 1247.16 2268.81 1246.56 2273.57 1245.44 2278.16 1243.81 2278.45 1243.72 2278.71 1243.55 2278.91 1243.32 2279.19 1242.98 2279.38 1242.58 2279.45 1242.15 2279.46 1241.52 2279.04 1240.96 2278.43 1240.81 2277.17 1240.33 2276.03 1240.92 2274.9 1241.31 2270.85 1242.68 2266.79 1243.95 2262.48 1244.07 2262.17 1244.06 2261.87 1244.15 2261.63 1244.33 2261.29 1244.6 2261.05 1244.98 2260.95 1245.4 2260.92 1245.85 2261.09 1246.28 2261.4 1246.6 2261.83 1246.88 2262.29 1247.09 2262.78 1247.24Z" id="Path_10666" fill="#4EDB57" transform="translate(-1416.3 -831.172)"/><path d="M1565.49 893.055C1566.76 893.055 1567.22 893.014 1567.67 893.063 1568.95 893.035 1570.05 893.976 1570.22 895.248 1571.96 903.457 1575.06 911.224 1577.83 919.099 1578.08 919.654 1578.29 920.224 1578.46 920.805 1579.04 923.428 1577.93 925.105 1575.19 924.965 1570.59 924.74 1566.08 925.62 1561.59 926.158 1557.7 926.626 1553.76 926.758 1549.87 927.558 1545.89 928.37 1541.73 928.314 1537.65 928.733 1533.44 929.167 1529.23 929.717 1525.03 930.222 1524.59 930.343 1524.14 930.422 1523.68 930.458 1519.09 930.088 1514.65 931.749 1510.07 931.479 1505.52 932.961 1500.65 931.692 1496.08 933.099 1495.64 933.226 1495.18 933.271 1494.72 933.23 1490.13 932.83 1485.59 933.773 1481.14 934.416 1476.93 935.026 1472.67 934.764 1468.48 935.793 1465.13 936.616 1461.52 936.362 1458.12 937.024 1454.08 937.81 1449.95 937.537 1445.94 938.547 1443.46 939.176 1440.83 939.09 1438.28 939.396 1434.83 939.815 1431.38 940.432 1427.89 940.679 1424.27 940.982 1420.67 941.47 1417.1 942.142 1414.71 942.557 1412.3 942.58 1409.89 943.119 1405.92 944.009 1401.81 944.301 1397.76 944.866 1396.99 944.936 1396.24 944.644 1395.72 944.077 1393.69 942.304 1392.58 938.02 1391.87 935.535 1390.15 929.571 1389.92 925.519 1388.08 919.235 1388.1 917.443 1387.44 915.651 1387.33 913.847 1387.2 911.692 1387.91 910.888 1389.87 910.02 1391.17 909.59 1392.54 909.413 1393.91 909.496 1399.36 909.256 1404.79 908.7 1410.18 907.831 1410.47 907.761 1410.78 907.728 1411.08 907.731 1415.98 908.143 1420.81 907.136 1425.59 906.531 1430.25 905.944 1435.03 906.445 1439.59 905.064 1439.74 905.014 1439.89 904.991 1440.04 904.997 1444.78 905.341 1449.42 904.208 1454.1 903.826 1458.6 903.459 1463.2 903.5 1467.64 902.378 1467.94 902.286 1468.24 902.24 1468.54 902.243 1473.29 902.613 1477.93 901.487 1482.6 901.061 1487.1 900.653 1491.71 900.844 1496.14 899.606 1496.43 899.514 1496.74 899.475 1497.05 899.49 1501.79 899.898 1506.46 898.906 1511.1 898.326 1515.91 897.726 1520.83 898.139 1525.56 896.833 1525.7 896.787 1525.85 896.764 1526.01 896.766 1530.75 897.088 1535.34 895.516 1540.08 895.703 1541.29 895.744 1542.51 895.599 1543.68 895.273 1545.01 894.962 1546.38 894.816 1547.75 894.839 1549.73 894.93 1551.71 894.714 1553.62 894.199 1554.66 893.962 1555.73 893.873 1556.79 893.937 1559.22 893.847 1561.66 894.057 1564.03 893.192 1564.5 893.041 1565 892.994 1565.49 893.055Z" id="Path_10667" fill="#CCFACF" transform="translate(-900.642 -635.714)"/><path d="M2535.59 831.329C2538.68 834.429 2540.26 838.429 2542.12 842.254 2542.35 842.652 2542.49 843.096 2542.52 843.554 2542.5 849.226 2544.51 854.613 2544.76 860.259 2545.02 866.036 2545.74 871.794 2545.93 877.57 2546.22 886.86 2546.22 896.157 2546.38 905.447 2546.41 907.422 2546.59 909.398 2546.68 911.373 2546.74 912.589 2546.81 913.809 2546.76 915.025 2546.77 917.234 2545.42 919.219 2543.35 920.012 2541.67 920.715 2539.93 921.27 2538.15 921.673 2525.94 924.316 2513.46 925.551 2500.97 925.354 2497.92 925.335 2494.87 925.454 2491.83 925.515 2491.05 925.637 2490.26 925.46 2489.62 925.021 2489.19 923.509 2489.79 922.084 2490.15 920.621 2491.68 914.257 2493.17 907.885 2494.68 901.521 2495.08 900.047 2495.19 898.51 2495 896.994 2494.95 896.661 2494.46 896.324 2494.1 896.137 2493.91 896.037 2493.52 896.204 2493.27 896.35 2493.01 896.498 2492.79 896.722 2492.65 896.993 2491.64 899.365 2489.49 900.611 2487.67 902.224 2480.98 908.158 2473.05 910.201 2464.37 909.565 2458.61 909.142 2452.8 909.112 2447.1 907.975 2444.41 907.461 2441.75 906.811 2439.13 906.026 2436.59 905.244 2436.07 904.245 2436.33 901.57 2436.77 898.556 2437.6 895.611 2438.8 892.808 2439.1 891.893 2440.07 891.371 2441 891.618 2441.74 891.745 2442.47 892.011 2443.21 892.179 2447.79 893.294 2452.47 893.974 2457.19 894.21 2466.46 894.588 2473.7 890.678 2479.36 883.596 2482.99 878.892 2486.27 873.921 2489.16 868.724 2492.89 862.263 2496.54 855.749 2500.17 849.232 2501.72 846.426 2503.55 843.791 2505.65 841.371 2511.42 834.765 2519.4 830.482 2528.1 829.32 2530.6 829.986 2532.84 831.614 2535.59 831.329Z" id="Path_10668" fill="#FF6A6D" transform="translate(-1557.14 -595.841)"/><path d="M1242.85 1225.91C1240.25 1221.75 1238.7 1217.1 1236.75 1212.66 1226 1188.11 1215.32 1163.53 1204.7 1138.93 1204.58 1138.66 1206.01 1137.21 1206.47 1136.36 1214.21 1122.23 1222.95 1108.68 1231 1094.72 1232.77 1090.2 1233.21 1091.71 1233.4 1091.48 1233.76 1091.03 1232.84 1093.65 1233.07 1094.2 1233.55 1095.31 1233.97 1096.45 1234.32 1097.62 1236.75 1106.87 1239.42 1116.05 1242.56 1125.1 1243.31 1127.23 1243.6 1129.52 1244.19 1131.71 1245.66 1137.13 1247.05 1142.58 1248.71 1147.94 1251.63 1157.37 1254.69 1166.77 1257.76 1176.16 1258.56 1178.61 1259.54 1181 1260.48 1183.41 1260.88 1184.56 1261.54 1185.62 1262.4 1186.48 1264.15 1188.11 1264.05 1189.91 1262.98 1191.86 1262.1 1193.46 1247.31 1219.5 1244.68 1223.94 1244.28 1224.76 1243.64 1225.45 1242.85 1225.9Z" id="Path_10669" fill="#CCFACF" transform="translate(-786.342 -759.878)"/><path d="M2595.99 1205.02C2597.95 1197.57 2600.39 1190.25 2603.29 1183.12 2603.84 1181.72 2604.13 1180.2 2605.28 1179.11 2605.41 1179.39 2605.65 1179.65 2605.66 1179.93 2605.87 1185.85 2607.33 1191.67 2607.11 1197.63 2606.7 1208.62 2607.92 1219.5 2609.42 1230.35 2609.6 1231.56 2609.71 1232.77 2609.76 1233.99 2610.16 1242.34 2610.99 1250.66 2612.24 1258.93 2612.56 1261.34 2612.64 1263.78 2612.97 1266.19 2614.5 1277.32 2616.41 1288.39 2617.28 1299.61 2617.52 1302.79 2618.3 1306.88 2618.08 1310.09 2614.49 1309.58 2610.88 1308.22 2607.31 1307.57 2603 1306.79 2598.74 1305.68 2594.41 1304.93 2590.71 1304.28 2587.05 1302.94 2583.19 1303.76 2583.22 1301.48 2583.14 1299.19 2583.3 1296.93 2583.98 1287.23 2584.92 1277.57 2586.26 1267.93 2587.07 1262.06 2588.12 1256.18 2588.21 1250.28 2588.31 1243.83 2589.89 1237.69 2590.87 1231.43 2591.72 1226.04 2592.98 1220.71 2594 1215.34 2594.26 1214.01 2594.28 1212.63 2594.41 1211.26L2594.35 1211.26C2595.42 1210.23 2595.16 1208.87 2595.28 1207.6L2595.3 1207.54C2595.9 1206.85 2596.15 1205.92 2595.99 1205.02Z" id="Path_10670" fill="#4EDB57" transform="translate(-1649.09 -814.762)"/><path d="M1674.78 1421.04C1677.32 1420.76 1678.99 1421.77 1680.57 1423.85 1683.41 1427.62 1685.5 1431.88 1688.53 1435.53 1690.1 1437.42 1689.38 1439.25 1687.06 1440.2 1686.08 1440.62 1685.05 1440.93 1684 1441.12 1679.51 1441.83 1675 1442.42 1670.51 1443.12 1665.87 1443.85 1607.06 1456.11 1599.87 1457.81 1594.55 1459.06 1589.25 1460.41 1583.94 1461.72 1582.9 1461.91 1581.87 1462.16 1580.85 1462.49 1577.22 1463.93 1575.47 1462.09 1573.34 1459.68 1569.84 1455.7 1565.74 1451.4 1562.48 1447.21 1561.6 1446.16 1561.74 1444.6 1562.79 1443.73 1563.06 1443.5 1563.39 1443.33 1563.73 1443.24 1566.22 1442.56 1568.75 1442.04 1571.28 1441.53 1586.43 1438.42 1601.58 1435.34 1616.74 1432.26 1631.9 1429.19 1647.06 1426.15 1662.23 1423.14 1665.2 1422.55 1668.17 1421.92 1671.16 1421.38 1672.34 1421.17 1673.57 1421.15 1674.78 1421.04Z" id="Path_10671" fill="#CCFACF" transform="translate(-1009.91 -966.147)"/><path d="M2678.21 708.929C2675.45 709.213 2673.21 707.586 2670.71 706.92 2669.79 705.592 2668.2 706.048 2666.96 705.54 2665.33 705.024 2664.22 703.528 2664.18 701.821 2663.93 699.18 2664.71 697.481 2667.14 696.303 2669.6 695.072 2671.84 693.442 2673.76 691.48 2674.64 690.643 2675.63 689.925 2676.7 689.344 2689.43 682.157 2702.17 674.988 2714.92 667.839 2730.71 658.938 2746.49 650.025 2762.26 641.099 2766.37 638.78 2770.51 636.513 2774.68 634.299 2776.38 633.399 2777.08 633.581 2778.19 635.085 2779.86 637.262 2781.22 639.664 2782.22 642.22 2783.41 645.125 2782.73 648.458 2780.5 650.668 2779.29 652.039 2777.86 653.196 2776.26 654.091 2769.21 658.023 2762.22 662.06 2755.17 665.991 2743.87 672.291 2732.51 678.51 2721.22 684.844 2716.84 687.302 2712.58 689.985 2708.28 692.581 2700.71 697.153 2692.88 701.235 2684.96 705.159 2682.66 706.3 2680.22 707.231 2678.21 708.929Z" id="Path_10672" fill="#FFDD7B" transform="translate(-1699.76 -473.441)"/><path d="M1157.71 1023.74C1157.2 1022.83 1156.61 1021.94 1156.19 1020.99 1151.05 1009.36 1145.93 997.722 1140.83 986.076 1140.47 985.257 1140.26 984.376 1139.97 983.524 1144.92 976.965 1172.84 929.308 1174.39 926.696 1174.68 926.223 1175.29 926.071 1175.76 926.357 1175.96 926.477 1176.11 926.663 1176.19 926.883 1177.89 931.269 1179.24 935.783 1180.23 940.383 1181.72 949.041 1183.72 957.604 1186.23 966.026 1186.36 966.46 1186.45 966.913 1186.61 967.336 1188.43 972.162 1189.24 973.136 1184.46 980.558 1180.44 986.432 1160.99 1019.57 1159.6 1021.93 1159.15 1022.71 1158.73 1023.54 1157.71 1023.74Z" id="Path_10673" fill="#CCFACF" transform="translate(-745.834 -656.477)"/><path d="M2075.67 1048.81C2073.23 1049.32 2071.24 1050.74 2069.14 1051.96 2067.76 1052.76 2066.78 1052.36 2066.5 1050.72 2066.09 1047.84 2064.82 1045.14 2062.84 1043.01 2061.71 1041.99 2060.52 1041.05 2059.28 1040.18 2058.8 1039.87 2058.65 1039.24 2058.96 1038.76 2059.08 1038.56 2059.26 1038.42 2059.48 1038.34 2063.43 1036.05 2067.38 1033.76 2071.36 1031.53 2082.65 1025.19 2093.97 1018.92 2105.25 1012.58 2118.25 1005.25 2131.2 997.856 2144.19 990.512 2151.48 986.389 2158.78 982.286 2166.09 978.203 2167.1 977.48 2168.27 977.009 2169.5 976.83 2170.09 978.43 2168.25 979.913 2169.3 981.252 2170.31 982.39 2171.4 983.447 2172.58 984.413 2174.24 985.943 2175.71 987.735 2178.29 987.813 2179.08 987.839 2179.35 989.384 2178.82 990.121 2178.16 990.957 2177.31 991.632 2176.34 992.093 2168.1 996.684 2159.85 1001.28 2151.61 1005.88 2142.57 1010.94 2133.57 1016.05 2124.53 1021.1 2117.62 1024.96 2110.65 1028.72 2103.74 1032.59 2101.51 1033.84 2099.03 1034.76 2097.41 1036.93 2096.97 1036.86 2096.52 1036.84 2096.07 1036.87 2092.37 1037.45 2089.94 1040.54 2086.54 1041.75 2085.4 1042.19 2084.5 1043.09 2084.06 1044.24 2081.98 1044.66 2080.05 1045.63 2078.47 1047.04 2077.98 1047.1 2077.57 1047.47 2077.46 1047.96L2077.51 1047.91C2076.74 1047.77 2075.98 1048.17 2075.64 1048.88Z" id="Path_10674" fill="#FFDD7B" transform="translate(-1320.89 -688.162)"/><path d="M1389.17 1459.37C1384.96 1458.75 1380.68 1458.81 1376.49 1459.53 1368.51 1460.6 1360.78 1462.9 1352.82 1464.04 1349.07 1464.56 1345.35 1465.3 1341.69 1466.26 1340.11 1466.68 1339.51 1466.35 1338.8 1464.83 1334.63 1455.91 1330.51 1446.97 1326.37 1438.04 1326.89 1437.49 1343.91 1406.97 1345.86 1403.53 1346.56 1402.3 1347.62 1402.33 1348.3 1403.56 1350.15 1406.89 1352.01 1410.2 1353.78 1413.57 1358.15 1421.95 1363.05 1429.05 1368.27 1436.92 1369.77 1439.19 1371.59 1441.26 1373.31 1443.38 1374.3 1444.59 1375.52 1446.41 1377.24 1446.29 1378.18 1446.22 1379.1 1448.39 1379.67 1449.21 1382.33 1453.13 1384.63 1454.37 1388.79 1458.09 1388.97 1458.5 1389.1 1458.93 1389.16 1459.37Z" id="Path_10675" fill="#CCFACF" transform="translate(-862.495 -954.648)"/><path d="M2015.46 822.27C2015.02 820.665 2014.63 819.037 2014.11 817.455 2009.41 803.309 2004.71 789.165 1999.98 775.024 1999.52 773.742 1999.16 772.422 1998.93 771.077 1998.73 769.775 1999.62 768.559 2000.93 768.36 2001.21 768.317 2001.49 768.325 2001.77 768.383 2006.31 769.722 2010.7 771.152 2012.93 776.128 2015.92 782.799 2018.65 789.545 2020.98 796.477 2025.04 808.588 2028.85 820.807 2033.6 832.645 2039.5 847.33 2044.26 862.43 2050.51 876.973 2051.49 879.036 2052.04 881.281 2052.12 883.565 2052.21 885.112 2051.5 886.598 2050.23 887.49 2047.76 889.26 2045.28 891.025 2042.8 892.784 2040.34 893.031 2038.7 892.084 2038.09 889.584 2037.99 889.143 2037.79 888.724 2037.64 888.293 2030.81 867.67 2023.98 847.05 2017.14 826.433 2016.67 825.02 2016.52 823.456 2015.46 822.27Z" id="Path_10676" fill="#646464" transform="translate(-1283.41 -557.651)"/><path d="M2571 1592.18C2570.76 1587.28 2571.73 1582.47 2572.24 1577.62 2572.59 1574.29 2573.16 1571 2572.09 1567.67 2571.66 1566.28 2572.37 1564.79 2573.72 1564.26 2574.83 1563.76 2575.98 1563.36 2577.15 1563.06 2584.31 1560.92 2591.62 1559.44 2598.94 1557.96 2601.18 1557.51 2603.4 1556.99 2605.63 1556.5 2606.23 1556.37 2606.81 1556.19 2607.42 1556.1 2611.03 1555.58 2612.56 1556.69 2613.08 1560.24 2613.43 1562.65 2613.64 1565.08 2614.1 1567.46 2614.89 1571.49 2615.84 1575.49 2616.7 1579.51 2617.46 1583.08 2618.23 1586.65 2618.91 1590.24 2619.28 1592.17 2618.57 1593.15 2616.77 1593.57 2603.13 1596.74 2589.49 1599.91 2575.84 1603.07 2575.4 1603.17 2574.97 1603.34 2574.52 1603.4 2573.09 1603.66 2571.72 1602.72 2571.45 1601.3 2571.2 1600.1 2571.05 1598.89 2571.02 1597.67 2570.94 1595.84 2571 1594.01 2571 1592.18Z" id="Path_10677" fill="#646464" transform="translate(-1641.44 -1050.63)"/><path d="M2126.32 1144.61C2126.76 1143.47 2127.66 1142.56 2128.8 1142.12 2132.2 1140.91 2134.63 1137.82 2138.33 1137.24 2138.78 1137.22 2139.23 1137.23 2139.67 1137.3 2140.62 1138.29 2141.31 1139.49 2141.69 1140.81 2144.25 1147.17 2154.94 1178.32 2157.54 1185.46 2157.64 1185.72 2170.13 1216.66 2173.54 1226.11 2175.77 1232.27 2178.02 1238.42 2180.33 1244.54 2180.89 1245.79 2181.14 1247.15 2181.06 1248.52 2178.46 1250.13 2177.73 1250.1 2176.01 1248.33 2175.81 1248.12 2175.61 1247.88 2175.44 1247.63 2171.57 1242.16 2166.49 1237.82 2161.61 1233.33 2158.55 1230.62 2156.13 1227.27 2154.51 1223.52 2154.31 1223.12 2154.08 1222.74 2153.81 1222.37 2151.79 1216.58 2149.83 1210.77 2147.73 1205.01 2146.71 1202.19 2131.75 1158.38 2129.99 1152.88 2129.16 1149.97 2127.92 1147.18 2126.32 1144.61Z" id="Path_10678" fill="#646464" transform="translate(-1363.15 -788.544)"/><path d="M2171.08 482.483C2173.22 482.413 2175.35 482.88 2177.27 483.841 2178.68 484.405 2180.02 485.148 2181.25 486.052 2184.1 488.51 2186.62 487.975 2189.44 485.914 2193.35 482.929 2198.17 481.387 2203.09 481.548 2205.83 481.699 2208.51 482.34 2211.02 483.441 2212.95 484.227 2212.89 485.633 2213.15 487.586 2213.47 490.086 2213.8 492.442 2212.84 494.695 2210.89 499.506 2208.14 503.946 2204.68 507.82 2200.25 512.426 2195.53 516.748 2190.55 520.761 2189.42 521.708 2188.51 522.104 2186.92 521.24 2181.45 518.251 2175.81 515.564 2170.68 511.965 2166.47 509.176 2163.03 505.368 2160.69 500.894 2159.62 498.698 2159.01 496.302 2158.92 493.86 2158.63 488.3 2163.02 483.365 2168.8 482.602 2169.55 482.506 2170.32 482.521 2171.08 482.483Z" id="Path_10679" fill="#FF6A6D" transform="translate(-1383.55 -378.175)"/><path d="M2470.33 825.915C2470.71 827.101 2471.09 828.384 2471.52 829.649 2472.21 831.636 2471.69 832.859 2469.89 834.249 2464.49 838.432 2460.87 844.089 2457.89 850.161 2457.43 850.952 2457.06 851.786 2456.76 852.653 2456.23 854.711 2455.19 855.853 2452.88 855.44 2451.95 855.436 2451.06 855.751 2450.34 856.331 2443.58 860.151 2436.8 863.937 2430.02 867.746 2423.12 871.629 2416.23 875.52 2409.33 879.419 2407.74 880.317 2406.16 881.232 2404.59 882.165 2403.18 883.095 2401.36 883.17 2399.88 882.36 2395.85 880.548 2391.67 879.102 2387.38 878.039 2385.87 877.646 2384.92 877.676 2383.8 878.933 2382.58 880.31 2382.09 880.224 2380.62 879.433 2379.83 879.003 2378.86 878.61 2378.75 877.615 2378.62 876.5 2379.69 876.163 2380.46 875.733 2386.03 872.598 2391.64 869.507 2397.21 866.368 2408.08 860.235 2418.96 854.09 2429.82 847.934 2435.39 844.787 2440.97 841.654 2446.55 838.534 2453.58 834.575 2460.62 830.619 2467.65 826.666 2468.41 826.218 2469.15 825.582 2470.33 825.915Z" id="Path_10680" fill="#FFDD7B" transform="translate(-1521.13 -593.651)"/><path d="M1085.1 945.589C1081.85 938.372 1078.56 931.166 1075.34 923.934 1072.11 916.702 1068.94 909.434 1065.75 902.182 1065.38 901.344 1064.99 900.517 1064.67 899.66 1064.36 899.062 1064.59 898.326 1065.19 898.015 1065.29 897.959 1065.41 897.92 1065.53 897.898 1068.39 897.505 1071.25 897.037 1074.13 896.835 1077.32 896.611 1080.53 896.67 1083.73 896.554 1086.93 896.438 1090.12 896.438 1092.98 894.571 1093.81 894.195 1094.71 894.027 1095.62 894.081 1097.75 893.981 1099.89 894.006 1102.02 893.909 1107.19 893.677 1112.35 893.404 1117.52 893.149 1114.84 894.022 1090.31 935.783 1085.1 945.589Z" id="Path_10681" fill="#CCFACF" transform="translate(-698.636 -635.79)"/><path d="M2332.6 1460.72C2336.61 1462.26 2340.88 1462.65 2345.03 1463.57 2351.26 1464.95 2357.54 1466.09 2363.83 1467.19 2367.13 1467.75 2370.46 1468.13 2373.8 1468.35 2376.24 1468.44 2378.58 1469.39 2380.39 1471.04 2381.27 1473.9 2380.76 1476.78 2380.37 1479.63 2380.02 1482.24 2378.59 1483.2 2375.91 1483.01 2375.75 1483 2375.6 1482.99 2375.45 1482.96 2365.43 1480.58 2355.01 1480.16 2345.15 1476.92 2340.85 1475.5 2336.32 1475.66 2332.64 1472.69 2331.72 1472.17 2330.71 1471.81 2329.67 1471.6 2324.1 1469.6 2318.53 1466.68 2312.97 1464.64 2310.85 1463.86 2308.72 1463.12 2307.7 1460.69 2307.05 1459.14 2305.19 1459.1 2303.81 1458.57 2302.45 1458.19 2301.54 1456.9 2301.64 1455.49 2302.74 1453.89 2304.08 1453.6 2305.95 1454.25 2309.03 1455.46 2312.26 1456.26 2315.55 1456.65 2319.37 1458.58 2323.63 1458.99 2327.7 1460.01 2329.29 1460.41 2330.89 1461.09 2332.6 1460.72Z" id="Path_10682" fill="#646464" transform="translate(-1472.88 -986.76)"/><path d="M2129.42 1209.08C2130.57 1211.84 2131.83 1214.56 2132.86 1217.38 2134.96 1223.14 2136.92 1228.95 2138.94 1234.74 2137.08 1235.11 2135.2 1234.16 2134.39 1232.44 2132.52 1229.31 2130.51 1226.25 2128.83 1223.02 2124.92 1215.44 2120.97 1207.87 2117.42 1200.12 2114.07 1192.78 2111.34 1185.6 2107.86 1178.32 2106.69 1175.86 2105.69 1173.3 2104.56 1170.81 2103.18 1167.79 2101.79 1164.73 2103.06 1161.56L2103.04 1161.61C2103.81 1161.74 2104.57 1161.34 2104.91 1160.64L2104.86 1160.69C2105.19 1160.38 2105.53 1160.08 2105.87 1159.77 2107.45 1158.36 2109.38 1157.4 2111.46 1156.97 2113.06 1159.55 2114.29 1162.33 2115.13 1165.25 2116.88 1170.75 2118.71 1176.23 2120.52 1181.72 2120.67 1182.72 2120.31 1183.89 2121.52 1184.51L2121.48 1184.4C2121.33 1185.93 2122.57 1187.36 2123.08 1188.83 2124.86 1193.96 2126.46 1199.16 2128.24 1204.29 2128.63 1205.38 2127.7 1206.72 2128.85 1207.47L2128.76 1207.79C2128.98 1208.22 2129.2 1208.65 2129.42 1209.08Z" id="Path_10683" fill="#BCEBF5" transform="translate(-1348.29 -800.905)"/><path d="M2041.48 912.55C2042.54 913.732 2042.69 915.3 2043.16 916.714 2050.02 937.329 2056.85 957.949 2063.67 978.574 2063.81 979.008 2064.01 979.423 2064.12 979.865 2064.72 982.365 2066.36 983.307 2068.83 983.065 2066.56 984.165 2064.12 984.917 2062.37 986.952 2061.69 987.557 2060.87 987.997 2059.99 988.239 2058.88 988.866 2057.47 988.471 2056.84 987.358 2056.76 987.211 2056.69 987.057 2056.64 986.896 2056.11 985.805 2055.71 984.654 2055.44 983.469 2054.19 976.626 2052.35 969.91 2051.35 963.011 2050.33 955.985 2047.96 949.011 2046.68 942.026 2046.44 940.992 2046.13 939.973 2045.76 938.977 2043.61 932.183 2043.39 925.377 2041.17 918.605 2040.63 917.185 2040.41 915.663 2040.54 914.149 2040.66 913.025 2040.52 912.688 2041.48 912.55Z" id="Path_10684" fill="#BCEBF5" transform="translate(-1309.43 -647.932)"/><path d="M2581.16 1511.83C2585.03 1511.01 2588.69 1512.35 2592.39 1513 2596.71 1513.76 2600.97 1514.86 2605.29 1515.65 2608.85 1516.3 2612.47 1517.66 2616.06 1518.17 2616.39 1518.67 2616.85 1518.18 2617.04 1518.73 2617.64 1520.11 2617.01 1521.71 2615.64 1522.32 2615.42 1522.41 2615.2 1522.48 2614.97 1522.52 2614.53 1522.62 2614.07 1522.66 2613.62 1522.65 2609.24 1522.57 2604.83 1522.71 2600.47 1522.32 2595.63 1521.9 2590.81 1521.66 2585.97 1521.69 2580.29 1521.72 2579.19 1520.36 2580.38 1514.91 2580.6 1513.88 2580.9 1512.85 2581.16 1511.83Z" id="Path_10685" fill="#646464" transform="translate(-1647.07 -1022.84)"/><path d="M2532.23 927.552C2534.28 925.779 2544.31 919.774 2547.92 918.09 2548.03 918.341 2548.29 918.666 2548.21 918.835 2545.92 923.458 2543.36 927.942 2540.55 932.263 2539.77 933.513 2538.97 933.636 2537.94 932.738 2536.01 931.054 2534.14 929.3 2532.23 927.552Z" id="Path_10686" fill="#FF6A6D" transform="translate(-1617.2 -651.399)"/><path d="M1276.47 1593.56 1274.7 1593.36C1275.39 1592.6 1275.98 1592.66 1276.47 1593.56Z" id="Path_10687" fill="#BCEBF5" transform="translate(-830.157 -1073.7)"/><path d="M1495.18 1554.89C1494.7 1554.9 1494.28 1554.59 1494.15 1554.13 1494.6 1554.02 1495.05 1554.3 1495.15 1554.74 1495.16 1554.79 1495.17 1554.84 1495.18 1554.89Z" id="Path_10688" fill="#BCEBF5" transform="translate(-967.503 -1049.46)"/><path d="M948.053 1597.27C954.297 1597.23 960.453 1598.68 966.711 1598.42 967.013 1598.44 967.312 1598.49 967.598 1598.59 968.361 1598.91 968.716 1599.79 968.392 1600.56 968.348 1600.66 968.293 1600.76 968.227 1600.85 967.802 1601.27 967.293 1601.61 966.734 1601.83 954.058 1605.79 941.234 1608.82 927.794 1607.98 925.519 1607.84 923.248 1607.63 920.981 1607.41 920.537 1607.33 920.11 1607.18 919.72 1606.96 919.01 1606.52 918.787 1605.6 919.223 1604.89 919.282 1604.79 919.352 1604.7 919.432 1604.62 920.019 1604.14 920.646 1603.72 921.307 1603.36 928.613 1599.19 936.912 1597.09 945.319 1597.27 946.231 1597.28 947.14 1597.27 948.053 1597.27Z" id="Path_10689" fill="#FFFFFF" transform="translate(-607.535 -1076.47)"/><path d="M2743.6 1579.62C2743.58 1576.35 2743.12 1573.09 2742.25 1569.94 2742.01 1561.89 2741.32 1553.86 2740.49 1545.85 2740.4 1544.79 2740.08 1543.76 2739.54 1542.84 2740.11 1542.33 2740.88 1542.09 2741.64 1542.19 2749.94 1543.96 2758.35 1545.19 2766.51 1547.6 2768.1 1548.07 2769.77 1548.27 2771.4 1548.6 2772.51 1549.52 2773.93 1549.98 2775.37 1549.87 2777.2 1550.57 2779.04 1551.25 2780.87 1551.97 2782.3 1552.53 2783.26 1553.75 2782.71 1555.16 2781.66 1557.89 2783.29 1560.51 2783.58 1563.18 2783.62 1563.48 2782.67 1563.78 2782.68 1564.09 2782.84 1568.8 2781.9 1570.37 2777.36 1571.78 2770.13 1574 2762.8 1575.86 2755.38 1577.33 2752.54 1577.9 2749.83 1578.85 2747.08 1579.67 2745.88 1580.03 2744.75 1580.37 2743.6 1579.62Z" id="Path_10690" fill="#646464" transform="translate(-1746.95 -1041.97)"/></g><g id="Group_10621" transform="translate(1188.94 249.66)"><path d="M2039.35 806.8C2039.35 806.8 2037.66 818.592 2041.87 824.486 2046.08 830.38 2054.79 838.803 2052.54 841.051 2050.29 843.299 2025.31 830.663 2025.87 827.851 2026.43 825.039 2030.36 813.534 2029.52 806.797Z" id="Path_10807" fill="#FB9391" transform="translate(-1940.59 -598.76)"/><path d="M2027.39 841.58C2026.71 844.18 2026.08 846.286 2025.88 847.28 2025.32 850.088 2050.3 862.719 2052.55 860.48 2054.21 858.816 2049.86 853.752 2045.78 848.842 2043.48 850.282 2037.66 851.818 2027.39 841.58Z" id="Path_10808" fill="#060633" transform="translate(-1940.6 -618.185)"/><path d="M1983.49 811.12C1983.49 811.12 1981.8 822.912 1986.01 828.806 1990.22 834.7 1998.93 843.123 1996.68 845.371 1994.43 847.619 1969.45 834.983 1970.01 832.171 1970.57 829.359 1974.5 817.854 1973.66 811.116Z" id="Path_10809" fill="#FB9391" transform="translate(-1909.39 -601.172)"/><path d="M1908.19 340.145C1913.87 344.893 1916.54 352.341 1915.17 359.619 1914.01 365.407 1910.28 370.881 1911.22 376.713 1911.74 378.865 1912.4 380.98 1913.2 383.044 1914.29 386.715 1914.3 390.621 1913.23 394.298 1912.6 396.865 1911.11 399.138 1909 400.735 1907.47 401.662 1905.77 402.302 1904.01 402.625 1900.26 403.654 1896.37 404.042 1892.49 403.773 1888.58 403.483 1884.94 401.687 1882.33 398.762 1880.67 396.744 1879.52 394.038 1877.08 393.12 1876.23 392.848 1875.34 392.701 1874.45 392.683 1871 392.294 1867.52 392.386 1864.1 392.957 1860.5 393.734 1857.1 395.579 1853.42 395.712 1846.96 395.939 1841.54 390.889 1841.32 384.431 1841.16 379.896 1843.63 375.677 1847.67 373.607 1851.39 371.707 1856.33 371.62 1858.77 368.234 1860.82 365.391 1860.17 361.369 1861.74 358.234 1864.46 352.786 1872.17 352.434 1876.84 348.534 1881.37 344.755 1883.44 339.113 1889.21 336.698 1895.24 334.167 1903.29 336.159 1908.19 340.145Z" id="Path_10810" fill="#0B0755" transform="translate(-1837.53 -335.572)"/><path d="M1864.18 592.34C1864.18 592.34 1858.27 621.059 1867.68 625.107 1877.09 629.155 1908.74 636.277 1910.63 642.069 1912.53 647.861 1910.63 695.105 1910.63 695.105L1925.69 695.551C1925.69 695.551 1930.4 642.193 1929.96 637.019 1928.95 625.112 1925.66 622.136 1925.66 622.136 1925.66 622.136 1932.66 626.536 1934.55 636.829 1935.39 641.394 1935.4 690.729 1935.4 690.729L1950.45 691.17C1950.45 691.17 1960.76 625.296 1949.25 616.241 1937.74 607.186 1906.21 594.065 1906.21 594.065Z" id="Path_10811" fill="#FA7267" transform="translate(-1849.27 -478.981)"/><path d="M1982.44 504.249 1989.37 532.186 1978.51 534.808C1978.51 534.808 1971.4 522.552 1968.97 511.18 1966.54 499.808 1982.44 504.249 1982.44 504.249Z" id="Path_10812" fill="#FB9391" transform="translate(-1908.68 -429.304)"/><path d="M1884.46 436.358C1884.46 436.358 1896.53 439.166 1901.86 446.185 1907.19 453.204 1910.56 468.361 1910.56 468.361L1899.05 472.012C1899.05 472.012 1898.49 480.436 1893.15 482.678 1893.15 482.678 1889.79 495.878 1893.15 507.101 1893.15 507.101 1864.8 515.525 1847.39 507.101L1845.99 468.921 1835.33 464.431C1835.33 464.431 1840.94 440.008 1854.14 436.357 1867.33 432.706 1877.19 433.833 1884.46 436.358Z" id="Path_10813" fill="#FFFFFF" transform="translate(-1834.18 -390.56)"/><path d="M1836.42 505.33 1851.14 511.136C1851.14 511.136 1847.64 523.144 1848.77 529.241 1850.56 538.954 1864 548.79 1870.6 548.366L1870.3 554.194C1870.3 554.194 1837.53 552.123 1833.88 533.736 1830.23 515.349 1836.42 505.33 1836.42 505.33Z" id="Path_10814" fill="#FB9391" transform="translate(-1832.73 -430.384)"/><path d="M1974.99 508.123 1974.99 508.123C1974.88 508.118 1974.8 508.03 1974.8 507.923 1974.89 503.914 1971.36 498.687 1971.32 498.634 1971.26 498.546 1971.28 498.426 1971.37 498.366 1971.37 498.366 1971.37 498.365 1971.37 498.365 1971.46 498.305 1971.58 498.325 1971.64 498.41 1971.64 498.412 1971.64 498.415 1971.64 498.418 1971.79 498.634 1975.28 503.804 1975.18 507.936 1975.18 508.041 1975.09 508.125 1974.99 508.123 1974.99 508.123 1974.99 508.123 1974.99 508.123Z" id="Path_10815" fill="#485F73" transform="translate(-1910.11 -426.475)"/><path d="M1901.46 525.254C1898.46 525.254 1894.8 524.254 1890.91 520.927 1890.83 520.86 1890.82 520.74 1890.89 520.658 1890.89 520.656 1890.89 520.655 1890.89 520.653 1890.96 520.574 1891.08 520.564 1891.16 520.631 1900.62 528.719 1908.66 522.741 1908.74 522.68 1908.84 522.634 1908.96 522.677 1909.01 522.778 1909.04 522.848 1909.03 522.93 1908.98 522.989 1906.76 524.477 1904.14 525.265 1901.46 525.254Z" id="Path_10816" fill="#485F73" transform="translate(-1865.18 -438.905)"/><path d="M1876.13 502.072C1876.11 502.072 1876.09 502.068 1876.07 502.059L1874.12 501.359C1874.02 501.304 1873.99 501.182 1874.04 501.086 1874.08 501.013 1874.17 500.974 1874.25 500.988L1876.01 501.619 1880.31 487.637C1880.34 487.536 1880.44 487.478 1880.54 487.506 1880.55 487.507 1880.55 487.508 1880.55 487.509 1880.65 487.543 1880.71 487.65 1880.68 487.752L1876.31 501.928C1876.3 501.979 1876.26 502.021 1876.21 502.047 1876.19 502.064 1876.16 502.073 1876.13 502.072Z" id="Path_10817" fill="#485F73" transform="translate(-1855.77 -420.425)"/><path d="M1989.23 402.029C1989.23 402.029 1991.04 400.722 1991.69 401.773 1993.33 404.462 1989.91 405.914 1988.16 405.843Z" id="Path_10818" fill="#EA6868" transform="translate(-1919.54 -372.318)"/><path d="M1949.05 341.581C1941.02 339.151 1932.54 343.692 1930.11 351.724 1929.59 353.44 1929.38 355.234 1929.48 357.024 1929.58 362.715 1929.7 367.315 1930.61 370.979 1931.58 374.681 1931.11 378.612 1929.29 381.979L1928.55 383.321C1927.86 384.596 1928.15 386.183 1929.25 387.131 1932.65 390.058 1935.52 390.491 1937.31 390.349 1938.46 390.253 1939.46 389.504 1939.86 388.424L1942.44 381.581 1942.44 381.581C1951.79 383.881 1956.83 366.924 1958.67 362.041L1958.65 362.041C1958.73 361.86 1958.8 361.679 1958.88 361.494 1961.84 353.644 1957.88 344.878 1950.03 341.913 1949.71 341.791 1949.38 341.681 1949.05 341.581Z" id="Path_10819" fill="#FB9391" transform="translate(-1886.04 -338.567)"/><path d="M1941.01 354.022C1938.62 355.189 1936.3 356.501 1934.08 357.951 1931.69 359.434 1929.2 361.028 1927.87 363.5 1926.22 360.878 1925.73 357.7 1925.47 354.617 1925.29 353.189 1925.33 351.743 1925.58 350.326 1926.15 348.369 1927.09 346.54 1928.36 344.94 1929.85 342.781 1931.43 340.54 1933.75 339.307 1935.32 338.546 1937.03 338.119 1938.77 338.053 1942.84 337.682 1946.93 338.483 1950.55 340.362 1954.18 342.277 1956.9 345.564 1958.1 349.492 1959.5 354.525 1957.86 359.845 1956.23 364.812 1956.34 362.579 1955.96 360.349 1955.12 358.278 1954.74 356.875 1954.14 355.545 1953.33 354.34 1951.83 352.371 1951.18 352.433 1948.63 348.813 1946.6 351.474 1944.02 352.622 1941.01 354.022Z" id="Path_10820" fill="#0B0755" transform="translate(-1884.47 -336.919)"/><path d="M1930.16 386.605C1930.1 386.058 1929.84 385.553 1929.43 385.183 1928.6 384.415 1927.03 383.333 1925.39 384.075 1922.99 385.165 1924.76 391.117 1929.09 390.128 1929.1 390.124 1930.46 389.506 1930.16 386.605Z" id="Path_10821" fill="#FB9391" transform="translate(-1883.88 -362.523)"/><path d="M1983.37 401.743C1983.69 401.087 1983.42 400.291 1982.77 399.966 1982.11 399.641 1981.32 399.909 1980.99 400.565 1980.67 401.221 1980.93 402.017 1981.59 402.342 1981.59 402.342 1981.59 402.343 1981.59 402.343 1982.25 402.667 1983.04 402.399 1983.37 401.743Z" id="Path_10822" fill="#050521" transform="translate(-1915.46 -371.462)"/><path d="M1955.97 393C1956.29 392.344 1956.03 391.548 1955.37 391.223 1954.71 390.898 1953.92 391.166 1953.59 391.822 1953.27 392.478 1953.53 393.274 1954.19 393.599 1954.19 393.599 1954.19 393.6 1954.19 393.6 1954.85 393.924 1955.64 393.655 1955.97 393Z" id="Path_10823" fill="#050521" transform="translate(-1900.15 -366.581)"/><path d="M1962.57 416.628C1962.57 416.628 1961.75 415.502 1961.04 415.476 1960.54 415.517 1960.08 415.748 1959.74 416.121 1959.66 415.601 1959.31 415.163 1958.82 414.96 1957.77 414.754 1956.71 414.638 1955.64 414.611 1955.64 414.611 1956.63 418.602 1959.16 418.757 1960.59 418.878 1961.94 418.062 1962.5 416.735Z" id="Path_10824" fill="#DD4E4E" transform="translate(-1901.38 -379.716)"/><path d="M1959.15 416.369C1956.27 416.091 1954.28 413.279 1954.25 413.239 1954.19 413.153 1954.21 413.038 1954.29 412.979 1954.38 412.921 1954.5 412.942 1954.55 413.026 1954.55 413.027 1954.55 413.027 1954.55 413.028 1954.69 413.218 1957.8 417.597 1961.84 415.428 1961.93 415.38 1962.04 415.413 1962.09 415.503 1962.14 415.591 1962.11 415.703 1962.02 415.752 1962.02 415.753 1962.02 415.754 1962.02 415.755 1961.14 416.247 1960.14 416.462 1959.15 416.369Z" id="Path_10825" fill="#050521" transform="translate(-1900.58 -378.786)"/><path d="M1951 387.527C1950.72 387.404 1950.59 387.078 1950.72 386.798 1950.78 386.649 1950.91 386.536 1951.07 386.49 1952.55 386.142 1954.1 386.315 1955.47 386.98 1955.74 387.111 1955.85 387.438 1955.72 387.71 1955.72 387.712 1955.72 387.715 1955.72 387.717 1955.58 387.985 1955.25 388.096 1954.98 387.969 1953.86 387.427 1952.59 387.277 1951.37 387.545 1951.25 387.587 1951.12 387.58 1951 387.527Z" id="Path_10826" fill="#0B0755" transform="translate(-1898.6 -363.913)"/><path d="M1980.72 395.369C1980.47 395.197 1980.41 394.853 1980.58 394.601 1980.67 394.466 1980.82 394.378 1980.98 394.362 1982.5 394.281 1984 394.731 1985.22 395.633 1985.46 395.815 1985.52 396.161 1985.33 396.405 1985.15 396.65 1984.81 396.702 1984.56 396.52 1983.56 395.781 1982.33 395.407 1981.09 395.46 1980.96 395.469 1980.83 395.437 1980.73 395.369Z" id="Path_10827" fill="#0B0755" transform="translate(-1915.25 -368.4)"/><path d="M1965.71 401.358C1965.26 401.35 1964.82 401.248 1964.41 401.058 1964.31 401.015 1964.27 400.9 1964.31 400.802 1964.35 400.703 1964.47 400.657 1964.57 400.7 1966.3 401.45 1967.03 400.422 1967.19 400.139 1966.78 398.533 1966.91 396.833 1967.57 395.309 1967.61 395.213 1967.72 395.169 1967.82 395.209 1967.92 395.254 1967.96 395.37 1967.92 395.469 1967.3 396.93 1967.18 398.557 1967.59 400.091 1967.61 400.139 1967.6 400.192 1967.58 400.237 1967.22 400.934 1966.5 401.368 1965.71 401.358Z" id="Path_10828" fill="#EA6868" transform="translate(-1906.21 -368.87)"/><path d="M1917.82 606.952C1918.8 607.529 1919.9 607.866 1921.03 607.936 1922.83 608.015 1928.15 607.53 1929.01 607.653 1929.87 607.776 1934.15 609.432 1934.98 609.234 1935.81 609.036 1930.89 606.073 1930.89 606.073 1930.89 606.073 1935.44 608.016 1936.02 607.309 1936.6 606.602 1931.91 604.099 1931.91 604.099 1931.91 604.099 1936.53 605.507 1936.84 604.726 1937.16 603.945 1932.7 602.536 1932.7 602.536 1932.7 602.536 1936.92 603.163 1937.16 602.536 1937.39 601.909 1931.29 599.636 1928.71 599.799 1926.12 599.962 1918.13 601.123 1918.13 601.123Z" id="Path_10829" fill="#FB9391" transform="translate(-1880.25 -483.143)"/><path d="M1971.53 845.89C1970.85 848.49 1970.22 850.596 1970.02 851.59 1969.46 854.398 1994.44 867.029 1996.69 864.79 1998.35 863.126 1994 858.062 1989.92 853.152 1987.62 854.6 1981.8 856.133 1971.53 845.89Z" id="Path_10830" fill="#060633" transform="translate(-1909.4 -620.592)"/><g id="Group_10619" transform="translate(25.819 94.936)"><path d="M2012.54 554.972 1963.04 550.61 1944.33 585.456 1993.83 589.818Z" id="Path_10831" fill="#060633" transform="translate(-1920.88 -550.61)"/><rect x="0" y="0" width="33.266" height="2.199" id="Rectangle_1493" fill="#060633" transform="matrix(0.996138 0.087799 -0.087799 0.996138 0.193 30.587)"/></g><g id="Group_10620" transform="translate(44.985 21.028)"><path d="M1947.81 391.67C1945.95 390.726 1944.98 388.611 1945.49 386.58 1946.06 384.179 1948.47 382.696 1950.88 383.268 1953.28 383.839 1954.76 386.249 1954.19 388.65 1954.18 388.688 1954.17 388.727 1954.16 388.765L1954.16 388.765C1953.56 391.155 1951.14 392.607 1948.75 392.008 1948.74 392.007 1948.74 392.006 1948.73 392.005 1948.42 391.927 1948.11 391.814 1947.82 391.67ZM1951.7 383.922C1951.43 383.787 1951.14 383.681 1950.85 383.604 1948.6 383.039 1946.32 384.4 1945.75 386.646 1945.09 388.87 1946.36 391.207 1948.58 391.867 1950.81 392.527 1953.15 391.26 1953.81 389.036 1953.84 388.926 1953.87 388.815 1953.89 388.703L1953.89 388.703C1954.37 386.793 1953.46 384.806 1951.7 383.921Z" id="Path_10832" fill="#060633" transform="translate(-1940.62 -383.203)"/><path d="M1976.19 400.158C1974.31 399.214 1973.35 397.099 1973.86 395.068 1974.47 392.677 1976.9 391.227 1979.29 391.828 1981.68 392.434 1983.13 394.865 1982.53 397.258L1982.53 397.258C1981.92 399.651 1979.49 401.103 1977.1 400.5 1977.1 400.5 1977.1 400.499 1977.09 400.499 1976.78 400.416 1976.48 400.302 1976.18 400.158ZM1980.08 392.414C1979.81 392.275 1979.52 392.169 1979.22 392.096 1976.95 391.627 1974.72 393.089 1974.26 395.361 1973.82 397.493 1975.08 399.609 1977.16 400.233 1979.41 400.798 1981.69 399.437 1982.26 397.191L1982.26 397.191C1982.54 396.112 1982.37 394.967 1981.8 394.012 1981.39 393.325 1980.79 392.769 1980.08 392.414Z" id="Path_10833" fill="#060633" transform="translate(-1956.46 -387.943)"/><path d="M1934.62 385.536 1934.72 385.28 1939.79 387.192 1939.69 387.448Z" id="Path_10834" fill="#060633" transform="translate(-1934.62 -384.363)"/><path d="M1964.58 396.681 1964.51 396.416C1966.1 395.843 1967.89 396.353 1968.93 397.683L1968.7 397.833C1967.73 396.589 1966.06 396.122 1964.58 396.681Z" id="Path_10835" fill="#060633" transform="translate(-1951.31 -390.475)"/></g><path d="M2023.75 592.331C2024.09 591.503 2025.03 591.102 2025.85 591.434 2026.68 591.766 2027.08 592.707 2026.75 593.534 2026.45 594.291 2025.63 594.702 2024.84 594.494 2023.95 594.192 2023.46 593.228 2023.75 592.331Z" id="Path_10836" fill="#FFFFFF" transform="translate(-1939.38 -478.195)"/></g></svg>