<svg width="1667.69" height="1014.24" viewBox="0 0 1667.69 1014.24" xmlns="http://www.w3.org/2000/svg" xmlns:xlink="http://www.w3.org/1999/xlink" overflow="hidden"><g id="Group_10635" transform="translate(308.274 826.591)"><path d="M416.521 799.957 415.85 798.7 428.422 791.929 429.093 793.186ZM423.335 787.671 422.078 786.985 428.892 774.428 430.149 775.114ZM441.678 786.414 441.007 785.157 453.579 778.385 454.25 779.642ZM466.835 772.871 466.164 771.614 478.736 764.843 479.407 766.1ZM436.978 762.571 435.721 761.885 442.535 749.328 443.792 750.014ZM491.978 759.328 491.307 758.071 503.879 751.3 504.55 752.557ZM517.135 745.771 516.464 744.514 529.036 737.743 529.707 739ZM450.62 737.457 449.363 736.771 452.306 731.357 460.677 728.9 461.077 730.271 453.277 732.557ZM542.292 732.228 541.621 730.971 554.193 724.199 554.864 725.456ZM474.777 726.257 474.377 724.885 488.077 720.856 488.477 722.227ZM567.449 718.685 566.778 717.428 579.35 710.657 580.021 711.914ZM502.192 718.199 501.792 716.828 515.492 712.799 515.892 714.171ZM529.606 710.156 529.206 708.785 542.906 704.756 543.306 706.128ZM592.606 705.142 591.935 703.885 604.507 697.114 605.178 698.371ZM557.022 702.1 556.622 700.728 570.322 696.699 570.722 698.07ZM584.436 694.057 584.036 692.685 597.736 688.656 598.136 690.027ZM617.765 691.6 617.094 690.343 629.666 683.572 630.337 684.829ZM611.851 686 611.451 684.629 625.151 680.6 625.551 681.972ZM642.923 678.043 642.38 677.029 639.266 677.943 638.866 676.572 653.823 672.172Z" id="Path_10876" fill="#90C2EA" transform="translate(-415.85 -672.17)"/></g><g id="Group_10636" transform="translate(628.324 756.891)"><path d="M761.868 792.381 750.111 784.267 750.925 783.096 762.682 791.211ZM756.154 779.024 750.6 765.867 751.914 765.31 757.471 778.467ZM738.354 776.153 726.6 768.038 727.414 766.866 739.171 774.98ZM714.825 759.939 703.068 751.825 703.882 750.653 715.639 758.767ZM745.039 752.71 739.482 739.553 740.796 738.996 746.353 752.153ZM691.31 743.71 679.553 735.596 680.367 734.425 692.124 742.539ZM667.781 727.496 656.024 719.382 656.838 718.211 668.595 726.325ZM733.924 726.382 728.367 713.225 729.681 712.668 735.238 725.825ZM644.266 711.268 632.509 703.154 633.323 701.983 645.08 710.097ZM722.809 700.054 717.252 686.897 718.566 686.34 724.123 699.497ZM620.737 695.054 608.98 686.94 609.794 685.769 621.551 693.883ZM597.223 678.84 588.009 672.483 593.123 670.169 593.709 671.469 590.895 672.741 598.038 677.67ZM711.695 673.74 706.138 660.583 707.452 660.026 713.009 673.183ZM606.737 665.597 606.151 664.297 619.18 658.426 619.766 659.726ZM632.78 653.854 632.194 652.554 645.223 646.682 645.809 647.982ZM700.595 647.411 699.152 643.997 700.466 643.44 701.909 646.854ZM658.823 642.097 658.237 640.797 671.266 634.926 671.852 636.226ZM684.866 630.354 684.28 629.054 696.851 623.382 697.665 623.396 697.651 624.825 697.165 624.825ZM840.5 626.28 826.214 626.137 826.228 624.708 840.514 624.851ZM811.928 625.994 797.642 625.851 797.656 624.422 811.942 624.565ZM783.356 625.694 769.07 625.551 769.084 624.122 783.37 624.265ZM754.799 625.394 740.513 625.251 740.527 623.822 754.813 623.965ZM726.227 625.108 711.941 624.965 711.955 623.536 726.241 623.679Z" id="Path_10877" fill="#90C2EA" transform="translate(-588.01 -623.38)"/></g><g id="Group_10637" transform="translate(94.161 845.233)"><path d="M461.037 782.835 456.408 782.178 456.608 780.764 457.822 780.935 452.036 773.263 453.179 772.406ZM442.251 780.178 428.108 778.178 428.308 776.764 442.451 778.764ZM413.965 776.178 399.822 774.178 400.022 772.764 414.165 774.764ZM385.679 772.164 371.536 770.164 371.736 768.75 385.879 770.75ZM357.393 768.164 343.25 766.164 343.45 764.75 357.593 766.75ZM329.093 764.15 314.95 762.15 315.15 760.736 329.293 762.736ZM443.408 761.879 434.794 750.479 435.937 749.622 444.551 761.022ZM324.308 752.836 323.279 751.85 333.179 741.55 334.208 742.536ZM426.194 739.079 417.58 727.679 418.723 726.822 427.337 738.222ZM344.108 732.236 343.079 731.25 352.979 720.95 354.008 721.936ZM408.98 716.279 400.366 704.879 401.509 704.022 410.123 715.422ZM363.908 711.636 362.879 710.65 372.779 700.35 373.808 701.336ZM391.751 693.479 387.165 687.422 383.694 691.036 382.665 690.05 387.294 685.221 392.88 692.621Z" id="Path_10878" fill="#90C2EA" transform="translate(-314.95 -685.22)"/></g><g id="Group_10638" transform="translate(991.924 758.275)"><path d="M717.573 815.394 716.23 814.908 721.087 801.465 722.43 801.951ZM728.359 810.937 727.702 809.666 740.373 803.066 741.03 804.337ZM753.7 797.751 753.043 796.48 765.714 789.88 766.371 791.151ZM727.285 788.522 725.942 788.036 730.799 774.593 732.142 775.079ZM779.057 784.565 778.4 783.294 791.071 776.694 791.728 777.965ZM1188.87 774.779 1188.59 774.779 1180.76 767.465 1181.73 766.422 1188.59 772.836 1189.67 770.193 1191 770.736 1189.73 773.822C1189.45 774.537 1189.35 774.78 1188.88 774.78ZM804.4 771.38 803.743 770.109 816.415 763.509 817.072 764.781ZM736.985 761.651 735.642 761.165 740.499 747.722 741.842 748.208ZM829.743 758.194 829.086 756.923 841.758 750.323 842.415 751.594ZM1170.33 757.708 1159.9 747.951 1160.87 746.908 1171.3 756.665ZM1196.5 757.479 1195.19 756.936C1196.83 753.007 1198.7 748.55 1200.75 743.722L1202.06 744.279C1200 749.094 1198.13 753.551 1196.5 757.479ZM855.088 745.008 854.431 743.737 867.103 737.137 867.76 738.408ZM1149.46 738.194 1139.03 728.437 1140 727.394 1150.43 737.151ZM746.7 734.779 745.357 734.293 750.214 720.85 751.557 721.336ZM880.444 731.822 879.787 730.55 892.459 723.95 893.116 725.221ZM1207.64 731.093 1206.33 730.536C1208.16 726.265 1210.07 721.865 1212.02 717.393L1213.33 717.964C1211.39 722.422 1209.49 726.836 1207.65 731.094ZM1128.59 718.679 1118.16 708.922 1119.13 707.879 1129.56 717.636ZM905.787 718.636 905.13 717.365 917.802 710.765 918.459 712.036ZM756.416 707.908 755.073 707.422 759.93 693.979 761.273 694.465ZM931.131 705.451 930.474 704.18 943.145 697.58 943.802 698.851ZM1219.12 704.851 1217.82 704.265C1219.78 699.865 1221.75 695.479 1223.72 691.208L1225.02 691.808C1223.05 696.079 1221.08 700.451 1219.12 704.851ZM1107.72 699.165 1097.29 689.408 1098.26 688.365 1108.69 698.122ZM956.474 692.25 955.817 690.979 968.489 684.379 969.146 685.65ZM766.116 681.036 764.773 680.55 769.63 667.107 770.973 667.593ZM1086.85 679.65 1076.42 669.893 1077.39 668.85 1087.82 678.607ZM981.818 679.064 981.161 677.793 993.833 671.193 994.49 672.464ZM1231.05 678.835 1229.76 678.221C1231.99 673.521 1234.1 669.192 1236.06 665.335L1237.33 665.978C1235.39 669.822 1233.28 674.15 1231.05 678.836ZM1042.63 672.021 1036.55 670.935 1036.8 669.535 1042.89 670.621ZM1022.49 668.407 1008.43 665.878 1008.56 665.164 1007.17 665.878 1006.52 664.606 1019.19 658.006 1019.85 659.277 1009.56 664.62 1022.73 666.992ZM994.36 663.364 980.3 660.836 980.557 659.436 994.614 661.965ZM1065.97 660.15 1055.55 650.393 1056.52 649.35 1066.95 659.107ZM966.246 658.307 952.189 655.778 952.446 654.378 966.503 656.907ZM775.83 654.164 774.487 653.678 779.344 640.235 780.687 640.721ZM1244.05 653.364 1242.8 652.65C1248.56 642.636 1250.8 641.35 1252.1 641.35L1252.1 642.779C1251.65 642.779 1249.7 643.55 1244.05 653.364ZM938.117 653.264 924.06 650.735 924.317 649.335 938.374 651.864ZM1032.52 652.693 1031.86 651.422 1044.53 644.822 1045.19 646.093ZM909.988 648.207 895.931 645.678 896.188 644.278 910.245 646.807ZM881.874 643.164 867.817 640.635 868.074 639.235 882.131 641.764ZM853.745 638.121 839.688 635.592 839.945 634.192 854 636.722ZM825.631 633.064 811.574 630.535 811.831 629.135 825.888 631.664ZM797.5 628.021 786.014 625.964 785.528 627.292 784.185 626.806 785.071 624.349 797.742 626.62Z" id="Path_10879" fill="#90C2EA" transform="translate(-716.23 -624.35)"/></g><g id="Group_10639" transform="translate(1482.66 358.873)"><path d="M1152.37 714.872 1150.94 714.815 1151.56 700.544 1152.98 700.601ZM1140.98 713.315 1138.97 704.158 1140.37 703.858 1142.38 713.015ZM1135.9 690.2 1132.83 676.243 1134.23 675.943 1137.3 689.9ZM1153.6 686.314 1152.17 686.257 1152.79 671.986 1154.21 672.043ZM1129.74 662.3 1126.67 648.357 1128.07 648.057 1131.14 662ZM1154.84 657.771 1153.41 657.714 1154.03 643.443 1155.45 643.5ZM1123.6 634.4 1120.53 620.443 1121.93 620.143 1125 634.1ZM1156.07 629.229 1154.64 629.172 1155.26 614.9 1156.69 614.957ZM1117.44 606.5 1114.37 592.543 1115.77 592.243 1118.84 606.2ZM1157.3 600.686 1155.87 600.629 1156.48 586.357 1157.91 586.414ZM1111.28 578.6 1108.21 564.657 1109.61 564.357 1112.68 578.3ZM1158.54 572.143 1157.11 572.086 1157.73 557.814 1159.16 557.871ZM1105.14 550.7 1102.07 536.743 1103.47 536.443 1106.54 550.4ZM1159.77 543.6 1158.34 543.543 1158.95 529.272 1160.38 529.329ZM1098.98 522.786 1095.91 508.829 1097.31 508.529 1100.39 522.486ZM1161 515.057 1159.57 515 1160.19 500.729 1161.61 500.786ZM1092.84 494.885 1089.77 480.928 1091.17 480.628 1094.24 494.585ZM1162.24 486.513 1160.81 486.456 1161.43 472.184 1162.86 472.241ZM1086.69 466.984 1083.61 453.027 1085.01 452.727 1088.08 466.684ZM1163.47 457.955 1162.04 457.898 1162.66 443.627 1164.08 443.684ZM1080.53 439.084 1077.46 425.127 1078.86 424.813 1081.93 438.77ZM1164.7 429.412 1163.27 429.355 1163.89 415.083 1165.31 415.14ZM1074.39 411.183 1071.31 397.226 1072.71 396.926 1075.78 410.883ZM1165.94 400.869 1164.51 400.812 1164.59 399.141 1154.14 393.884 1154.79 392.613 1166.04 398.284ZM1141.39 387.455 1128.63 381.026 1129.27 379.755 1142.03 386.184ZM1068.23 383.284 1065.16 369.327 1066.56 369.013 1069.63 382.97ZM1115.87 374.613 1103.11 368.184 1103.76 366.913 1116.51 373.342ZM1090.34 361.77 1077.58 355.341 1078.23 354.07 1090.98 360.499ZM1062.08 355.384 1059.74 344.77 1065.47 347.656 1064.83 348.927 1061.78 347.398 1063.48 355.084Z" id="Path_10880" fill="#90C2EA" transform="translate(-1059.74 -344.77)"/></g><g id="Group_10641" transform="matrix(1 0 0 1 0 851.407)"><circle cx="19.557" cy="19.557" r="19.557" id="Ellipse_3173" fill="#F5C06A" transform="matrix(0.228385 -0.973571 0.973571 0.228385 0 38.082)"/><g id="Group_10640" transform="translate(11.004 11.041)"><path d="M270.5 722.242 267.929 722.242C267.211 722.242 266.629 721.66 266.629 720.942L266.629 719.842C266.629 719.484 266.398 719.167 266.058 719.056 265.649 718.913 265.248 718.746 264.858 718.556 264.555 718.398 264.184 718.456 263.944 718.699L263.144 719.499C262.901 719.739 262.572 719.873 262.23 719.87L262.23 719.87C261.888 719.876 261.558 719.742 261.316 719.499L259.487 717.67C258.987 717.158 258.987 716.339 259.487 715.827L260.301 715.013C260.544 714.773 260.602 714.402 260.444 714.099 260.254 713.709 260.087 713.308 259.944 712.899 259.836 712.563 259.526 712.334 259.173 712.328L258.04 712.328C257.322 712.328 256.74 711.746 256.74 711.028L256.74 708.457C256.74 707.739 257.322 707.157 258.04 707.157L259.2 707.157C259.549 707.152 259.857 706.929 259.971 706.6 260.111 706.194 260.278 705.798 260.471 705.414 260.629 705.111 260.571 704.74 260.328 704.5L259.499 703.671C259.255 703.429 259.116 703.101 259.113 702.757 259.109 702.412 259.249 702.081 259.499 701.843L261.328 700.014C261.571 699.774 261.9 699.64 262.242 699.643L262.242 699.643C262.584 699.637 262.914 699.771 263.156 700.014L263.999 700.857C264.239 701.1 264.61 701.158 264.913 701 265.296 700.809 265.692 700.646 266.099 700.514 266.427 700.406 266.65 700.102 266.656 699.757L266.656 698.57C266.656 697.852 267.238 697.27 267.956 697.27L270.527 697.27C271.245 697.27 271.827 697.852 271.827 698.57L271.827 699.756C271.833 700.101 272.056 700.405 272.384 700.513 272.788 700.654 273.184 700.816 273.57 700.999 273.873 701.157 274.244 701.099 274.484 700.856L275.327 700.013C275.84 699.513 276.657 699.513 277.17 700.013L279 701.841C279.244 702.083 279.383 702.411 279.386 702.755 279.39 703.1 279.25 703.431 279 703.669L278.172 704.498C277.929 704.738 277.871 705.109 278.029 705.412 278.219 705.797 278.386 706.193 278.529 706.598 278.643 706.927 278.951 707.15 279.3 707.155L280.457 707.155C281.175 707.155 281.757 707.737 281.757 708.455L281.757 711.026C281.757 711.744 281.175 712.326 280.457 712.326L279.328 712.326C278.974 712.327 278.661 712.559 278.557 712.897 278.42 713.309 278.253 713.71 278.057 714.097 277.9 714.4 277.958 714.77 278.2 715.011L279.014 715.825C279.514 716.337 279.514 717.156 279.014 717.668L277.185 719.497C276.672 719.997 275.855 719.997 275.342 719.497L274.542 718.697C274.302 718.454 273.931 718.396 273.628 718.554 273.238 718.744 272.837 718.911 272.428 719.054 272.088 719.165 271.857 719.482 271.857 719.84L271.857 720.94C271.807 721.658 271.22 722.222 270.5 722.242ZM264.486 717.685C264.734 717.686 264.979 717.745 265.2 717.857 265.558 718.03 265.925 718.183 266.3 718.314 266.954 718.538 267.396 719.151 267.4 719.843L267.4 720.943C267.399 721.226 267.627 721.456 267.91 721.457 267.911 721.457 267.913 721.457 267.914 721.457L270.486 721.457C270.769 721.458 270.999 721.23 271 720.947 271 720.946 271 720.944 271 720.943L271 719.843C271.004 719.148 271.444 718.53 272.1 718.3 272.475 718.169 272.842 718.016 273.2 717.843 273.809 717.542 274.541 717.657 275.029 718.129L275.829 718.929C276.031 719.13 276.356 719.13 276.558 718.929L278.387 717.1C278.587 716.898 278.587 716.573 278.387 716.371L277.573 715.557C277.098 715.078 276.977 714.35 277.273 713.743 277.446 713.385 277.599 713.018 277.73 712.643 277.95 711.986 278.566 711.543 279.259 711.543L280.388 711.543C280.671 711.544 280.901 711.316 280.902 711.033 280.902 711.032 280.902 711.03 280.902 711.029L280.902 708.458C280.903 708.175 280.675 707.945 280.392 707.944 280.391 707.944 280.389 707.944 280.388 707.944L279.231 707.944C278.546 707.943 277.937 707.507 277.717 706.858 277.586 706.487 277.433 706.125 277.26 705.772 276.959 705.163 277.074 704.431 277.546 703.943L278.375 703.114C278.468 703.019 278.52 702.89 278.518 702.757 278.519 702.624 278.468 702.496 278.375 702.4L276.546 700.571C276.344 700.37 276.019 700.37 275.817 700.571L274.974 701.414C274.495 701.891 273.767 702.011 273.16 701.714 272.81 701.54 272.447 701.391 272.074 701.271 271.425 701.051 270.989 700.442 270.988 699.757L270.988 698.57C270.989 698.287 270.761 698.057 270.478 698.056 270.477 698.056 270.475 698.056 270.474 698.056L267.9 698.056C267.617 698.055 267.387 698.283 267.386 698.566 267.386 698.567 267.386 698.569 267.386 698.57L267.386 699.756C267.381 700.44 266.946 701.046 266.3 701.27 265.93 701.397 265.567 701.545 265.214 701.713 264.608 702.017 263.875 701.896 263.4 701.413L262.557 700.57C262.46 700.48 262.333 700.429 262.2 700.427L262.2 700.427C262.067 700.426 261.939 700.477 261.843 700.57L260.014 702.399C259.813 702.588 259.804 702.905 259.993 703.106 259.995 703.108 259.998 703.111 260 703.113L260.829 703.942C261.308 704.427 261.423 705.163 261.115 705.771 260.942 706.124 260.789 706.487 260.658 706.857 260.436 707.504 259.828 707.94 259.144 707.943L257.987 707.943C257.704 707.942 257.474 708.17 257.473 708.453 257.473 708.454 257.473 708.456 257.473 708.457L257.473 711.028C257.472 711.311 257.7 711.541 257.983 711.542 257.984 711.542 257.986 711.542 257.987 711.542L259.116 711.542C259.808 711.546 260.421 711.988 260.645 712.642 260.776 713.017 260.929 713.384 261.102 713.742 261.406 714.348 261.285 715.081 260.802 715.556L259.988 716.37C259.788 716.572 259.788 716.897 259.988 717.099L261.817 718.928C261.913 719.021 262.041 719.072 262.174 719.071L262.174 719.071C262.307 719.072 262.435 719.021 262.531 718.928L263.331 718.128C263.653 717.853 264.06 717.697 264.483 717.684ZM269.215 716.228C265.641 716.227 262.744 713.33 262.745 709.756 262.746 706.182 265.643 703.285 269.217 703.286 272.79 703.287 275.686 706.183 275.687 709.756 275.685 713.331 272.786 716.227 269.212 716.227ZM269.215 704.085C266.083 704.085 263.544 706.624 263.544 709.756 263.544 712.888 266.083 715.427 269.215 715.427 272.347 715.427 274.886 712.888 274.886 709.756 274.884 706.624 272.344 704.085 269.212 704.084Z" id="Path_10881" fill="#FFFFFF" transform="translate(-256.74 -697.27)"/></g></g><g id="Group_10642" transform="translate(1420.95 428.392)"><circle cx="50" cy="50" r="50" id="Ellipse_3174" fill="#99CEAE" transform="matrix(0.229812 -0.973235 0.973235 0.229812 0 97.321)"/><path d="M1089.87 415.684C1089.59 415.452 1089.22 415.358 1088.87 415.427L1054.01 421.927C1053.43 422.034 1053.01 422.539 1053.01 423.127L1053.01 459.013C1051.53 457.563 1049.54 456.752 1047.47 456.756 1043.05 456.756 1039.48 460.331 1039.48 464.742 1039.48 469.153 1043.05 472.728 1047.47 472.728 1051.88 472.728 1055.45 469.153 1055.45 464.742L1055.45 431.97 1087.85 425.927 1087.85 452.242C1086.37 450.794 1084.39 449.984 1082.32 449.985 1077.91 449.985 1074.34 453.56 1074.34 457.971 1074.34 462.382 1077.91 465.957 1082.32 465.957 1086.73 465.957 1090.31 462.382 1090.31 457.971L1090.31 416.613C1090.31 416.252 1090.15 415.91 1089.86 415.684ZM1087.85 418.098 1087.85 423.427 1055.45 429.47 1055.45 424.141ZM1047.45 470.284C1044.39 470.28 1041.92 467.798 1041.92 464.741 1041.93 461.684 1044.41 459.208 1047.47 459.212 1050.52 459.216 1053 461.698 1052.99 464.755 1052.99 467.81 1050.51 470.283 1047.45 470.284ZM1087.85 457.984C1087.86 461.041 1085.38 463.523 1082.32 463.527 1079.27 463.531 1076.78 461.055 1076.78 457.998 1076.78 454.941 1079.25 452.459 1082.31 452.455 1082.31 452.455 1082.32 452.455 1082.32 452.455 1085.37 452.464 1087.84 454.934 1087.85 457.984Z" id="Path_10882" fill="#FFFFFF" transform="translate(-1006.72 -384.016)"/></g><g id="Group_10643" transform="translate(431.563 878.982)"><circle cx="42.543" cy="42.543" r="42.543" id="Ellipse_3175" fill="#1D80B6" transform="matrix(0.232716 -0.972545 0.972545 0.232716 0 82.746)"/><path d="M548.6 731.73 511.189 731.73C510.731 731.73 510.36 732.101 510.36 732.559L510.36 769.973C510.36 770.431 510.731 770.802 511.189 770.802L548.6 770.802C549.058 770.802 549.429 770.431 549.429 769.973L549.429 732.559C549.429 732.101 549.058 731.73 548.6 731.73ZM547.771 743.116 547.771 769.13 512.031 769.13 512.031 759.2 524.9 749.63 533.986 756.544C534.321 756.798 534.794 756.762 535.086 756.458ZM547.771 740.83C547.654 740.874 547.547 740.942 547.457 741.03L534.4 754.773 525.414 747.93C525.12 747.701 524.708 747.701 524.414 747.93L512.028 757.13 512.028 733.387 547.771 733.387Z" id="Path_10883" fill="#FFFFFF" transform="translate(-479.127 -699.035)"/><path d="M517.787 743.654C519.917 743.654 521.644 741.927 521.644 739.797 521.644 737.667 519.917 735.94 517.787 735.94 515.657 735.94 513.93 737.667 513.93 739.797 513.931 741.927 515.657 743.653 517.787 743.654ZM515.6 739.8C515.6 738.585 516.585 737.6 517.8 737.6 519.015 737.6 520 738.585 520 739.8 520 741.015 519.015 742 517.8 742 516.585 742 515.6 741.015 515.6 739.8Z" id="Path_10884" fill="#FFFFFF" transform="translate(-477.597 -697.231)"/></g><g id="Group_10645" transform="translate(1530.67 211.873)"><circle cx="31.443" cy="31.443" r="31.443" id="Ellipse_3176" fill="#C2586E"/><g id="Group_10644" transform="translate(19.714 12.214)"><path d="M1117.5 274.977C1121.43 274.971 1124.62 271.783 1124.63 267.848L1124.63 257.548C1124.67 253.611 1121.52 250.382 1117.58 250.335 1113.65 250.288 1110.42 253.442 1110.37 257.379 1110.37 257.435 1110.37 257.492 1110.37 257.548L1110.37 267.848C1110.38 271.783 1113.57 274.971 1117.5 274.977ZM1123.11 259.391 1111.9 259.391 1111.9 257.534C1111.94 254.433 1114.49 251.953 1117.59 251.994 1120.63 252.035 1123.09 254.492 1123.13 257.534L1123.13 259.391ZM1111.9 260.92 1123.11 260.92 1123.11 267.849C1123.07 270.95 1120.53 273.43 1117.42 273.389 1114.38 273.348 1111.93 270.891 1111.89 267.849L1111.89 260.92Z" id="Path_10885" fill="#FFFFFF" transform="translate(-1105.77 -250.42)"/><path d="M1130.64 263.047C1130.64 262.629 1130.3 262.29 1129.88 262.29 1129.46 262.29 1129.12 262.629 1129.12 263.047 1129.12 268.696 1124.54 273.276 1118.89 273.276 1113.24 273.276 1108.66 268.696 1108.66 263.047 1108.66 262.629 1108.33 262.29 1107.91 262.29 1107.49 262.29 1107.15 262.629 1107.15 263.047 1107.16 269.238 1111.96 274.367 1118.14 274.776L1118.14 283.876 1111.42 283.876C1111 283.876 1110.67 284.215 1110.67 284.633 1110.67 285.051 1111 285.39 1111.42 285.39L1126.38 285.39C1126.8 285.39 1127.14 285.051 1127.14 284.633 1127.14 284.215 1126.8 283.876 1126.38 283.876L1119.67 283.876 1119.67 274.776C1125.84 274.36 1130.63 269.233 1130.64 263.047Z" id="Path_10886" fill="#FFFFFF" transform="translate(-1107.15 -245.333)"/></g></g><g id="Group_10646" transform="translate(48.104 868.771)"><circle cx="34" cy="34" r="34" id="Ellipse_3177" fill="#99CEAE" transform="matrix(0.361201 -0.932488 0.932488 0.361201 0 63.41)"/><path d="M301.653 758.1C301.813 758.235 302.015 758.31 302.224 758.314 302.476 758.315 302.716 758.205 302.881 758.014L312.681 746.485C319.791 751.126 329.317 749.125 333.959 742.016 338.6 734.906 336.599 725.379 329.489 720.738 322.38 716.096 312.853 718.097 308.212 725.207 303.941 731.749 305.255 740.453 311.267 745.442L301.553 756.871C301.241 757.233 301.282 757.78 301.644 758.092 301.647 758.095 301.65 758.097 301.653 758.1ZM307.467 733.728C307.467 726.32 313.473 720.314 320.881 720.314 328.289 720.314 334.295 726.32 334.295 733.728 334.295 741.136 328.289 747.142 320.881 747.142 313.477 747.136 307.475 741.136 307.467 733.732Z" id="Path_10887" fill="#FFFFFF" transform="translate(-274.723 -694.468)"/></g><path d="M1003.09 672.3C998.34 672.3 994.49 676.15 994.49 680.9 994.49 685.65 998.34 689.5 1003.09 689.5 1007.84 689.5 1011.69 685.65 1011.69 680.9 1011.69 676.15 1007.84 672.3 1003.09 672.3Z" id="Path_10890" fill="#F5C06A" transform="translate(331.065 154.477)"/><circle cx="13.014" cy="13.014" r="13.014" id="Ellipse_3179" fill="#00A9AD" transform="matrix(0.707107 -0.707107 0.707107 0.707107 1123.56 822.369)"/><circle cx="12.2" cy="12.2" r="12.2" id="Ellipse_3180" fill="#C2586E" transform="matrix(0.707107 -0.707107 0.707107 0.707107 321.957 885.039)"/><circle cx="13.914" cy="13.914" r="13.914" id="Ellipse_3181" fill="#F5C06A" transform="matrix(0.719 -0.695 0.695 0.719 661.326 907.531)"/><path d="M610.319 703.946C607.065 705.986 606.08 710.277 608.12 713.531 610.16 716.786 614.451 717.77 617.705 715.731 620.959 713.691 621.944 709.4 619.905 706.146 617.87 702.892 613.582 701.905 610.328 703.94 610.325 703.942 610.322 703.944 610.319 703.946Z" id="Path_10891" fill="#90C2EA" transform="translate(29.259 167.588)"/><circle cx="17.2" cy="17.2" r="17.2" id="Ellipse_3182" fill="#90C2EA" transform="translate(1401.33 765.805)"/><circle cx="19.829" cy="19.829" r="19.829" id="Ellipse_3183" fill="#90C2EA" transform="matrix(0.707107 -0.707107 0.707107 0.707107 1234.23 438.449)"/><circle cx="24.4" cy="24.4" r="24.4" id="Ellipse_3184" fill="#9974BA" transform="translate(214.233 917.506)"/><g id="Group_10649" transform="translate(1451.54 0)"><circle cx="8.6" cy="8.6" r="8.6" id="Ellipse_3185" fill="#C2586E" transform="translate(43.329 29.714)"/><circle cx="11.014" cy="11.014" r="11.014" id="Ellipse_3186" fill="#9974BA" transform="translate(19.557 0)"/><circle cx="5.5" cy="5.5" r="5.5" id="Ellipse_3187" fill="#99CEAE" transform="matrix(1 0 0 1 0 38.329)"/></g><path d="M614.559 612.85C610.346 612.85 606.93 616.266 606.93 620.479 606.93 624.692 610.346 628.108 614.559 628.108 618.772 628.108 622.188 624.692 622.188 620.479 622.189 616.267 618.775 612.851 614.563 612.85 614.562 612.85 614.56 612.85 614.559 612.85Z" id="Path_10892" fill="#F5C06A" transform="translate(29.288 128.997)"/><circle cx="14.857" cy="14.857" r="14.857" id="Ellipse_3188" fill="#99CEAE" transform="translate(593.75 708.519)"/><g id="Group_10651" transform="translate(1535.61 76.814)"><ellipse cx="52.386" cy="54.072" rx="52.386" ry="54.072" id="Ellipse_3189" fill="#90C2EA"/><g id="Group_10650" transform="translate(17.986 27.929)"><path d="M1160.34 175.937C1159.22 175.94 1158.1 176.055 1157 176.28 1153.93 170.562 1147.99 166.963 1141.5 166.88 1133.26 166.88 1126.14 172.723 1124.1 181.123 1123.76 181.094 1123.44 181.08 1123.11 181.08 1115.56 181.08 1109.4 187.58 1109.4 195.566 1109.4 199.266 1110.76 205.852 1113.3 208.609 1113.54 208.875 1113.88 209.026 1114.24 209.023L1135.52 209.023C1136.26 208.994 1136.83 208.37 1136.81 207.628 1136.78 206.927 1136.22 206.364 1135.52 206.337L1114.86 206.337C1113.17 204.023 1112.02 198.866 1112.02 195.566 1112.02 189.066 1117 183.766 1123.13 183.766 1123.73 183.77 1124.33 183.827 1124.92 183.937 1125.63 184.042 1126.29 183.56 1126.42 182.851 1127.79 175.151 1134.13 169.565 1141.52 169.565 1147.4 169.633 1152.71 173.08 1155.17 178.422 1155.44 178.978 1156.06 179.271 1156.66 179.122 1157.86 178.799 1159.1 178.631 1160.34 178.622 1168.74 178.622 1175.59 185.879 1175.59 194.808 1175.59 198.237 1174.65 203.608 1173.22 206.351L1152.56 206.351C1151.82 206.38 1151.24 207.004 1151.27 207.746 1151.29 208.447 1151.86 209.01 1152.56 209.037L1173.94 209.037C1174.39 209.038 1174.8 208.811 1175.03 208.437 1177.09 205.28 1178.19 198.494 1178.19 194.808 1178.2 184.409 1170.19 175.937 1160.34 175.937Z" id="Path_10894" fill="#FFFFFF" transform="translate(-1109.4 -166.88)"/><path d="M1136.67 183.491C1136.29 182.907 1135.51 182.744 1134.92 183.127 1134.78 183.222 1134.65 183.346 1134.56 183.491L1128.74 191.905C1128.54 192.196 1128.46 192.555 1128.52 192.905 1128.57 193.255 1128.76 193.57 1129.04 193.776 1129.61 194.193 1130.41 194.07 1130.83 193.5 1130.84 193.487 1130.85 193.475 1130.86 193.462L1134.3 188.476 1134.3 215.19C1134.3 215.908 1134.88 216.49 1135.6 216.49 1136.32 216.49 1136.9 215.908 1136.9 215.19L1136.9 188.477 1140.34 193.463C1140.74 194.048 1141.54 194.199 1142.12 193.801 1142.14 193.793 1142.15 193.785 1142.16 193.777 1142.44 193.568 1142.63 193.255 1142.69 192.906 1142.74 192.556 1142.66 192.197 1142.46 191.906Z" id="Path_10895" fill="#FFFFFF" transform="translate(-1101.21 -160.006)"/></g></g><g id="Group_10653" transform="translate(688.718 717.884)"><circle cx="32.814" cy="32.814" r="32.814" id="Ellipse_3190" fill="#9974BA" transform="matrix(0.707107 -0.707107 0.707107 0.707107 0 46.406)"/><g id="Group_10652" transform="translate(26.399 29.335)"><path d="M667.257 628.9C663.696 628.897 660.269 630.263 657.686 632.714 657.324 633.053 657.304 633.622 657.643 633.985 657.815 634.164 658.052 634.267 658.3 634.271 658.529 634.273 658.749 634.186 658.914 634.028 663.569 629.601 670.873 629.589 675.543 634 675.898 634.339 676.461 634.327 676.8 633.972 676.805 633.967 676.809 633.962 676.814 633.957 676.984 633.788 677.073 633.553 677.057 633.314 677.057 633.073 676.952 632.844 676.771 632.685 674.205 630.247 670.797 628.891 667.257 628.9Z" id="Path_10896" fill="#FFFFFF" transform="translate(-647.229 -611.343)"/><path d="M669.076 622.62C663.268 622.612 657.681 624.843 653.476 628.849 653.113 629.189 653.094 629.758 653.434 630.121 653.604 630.303 653.841 630.406 654.09 630.406 654.319 630.408 654.539 630.321 654.704 630.163 662.73 622.542 675.313 622.523 683.361 630.12 683.716 630.459 684.279 630.447 684.618 630.092 684.623 630.087 684.627 630.082 684.632 630.077 684.971 629.714 684.952 629.144 684.589 628.805 680.407 624.823 674.85 622.608 669.076 622.62Z" id="Path_10897" fill="#FFFFFF" transform="translate(-649.033 -614.034)"/><path d="M690.023 624.439C678.941 613.98 661.618 614.005 650.566 624.496 650.204 624.835 650.184 625.404 650.523 625.767 650.695 625.946 650.932 626.049 651.18 626.053 651.409 626.055 651.629 625.968 651.794 625.81 662.143 615.965 678.387 615.94 688.766 625.753 689.121 626.092 689.684 626.08 690.023 625.725 690.028 625.72 690.032 625.715 690.037 625.71 690.207 625.541 690.296 625.306 690.28 625.067 690.293 624.83 690.199 624.599 690.023 624.439Z" id="Path_10898" fill="#FFFFFF" transform="translate(-650.28 -616.61)"/><path d="M665.679 634.38C663.122 634.38 661.05 636.452 661.05 639.009 661.05 641.566 663.122 643.638 665.679 643.638 668.236 643.638 670.308 641.566 670.308 639.009 670.304 636.454 668.234 634.384 665.679 634.38ZM668.508 639.009C668.508 640.571 667.241 641.838 665.679 641.838 664.117 641.838 662.85 640.571 662.85 639.009 662.85 637.447 664.117 636.18 665.679 636.18 667.24 636.184 668.504 637.448 668.507 639.009Z" id="Path_10899" fill="#FFFFFF" transform="translate(-645.664 -608.994)"/></g></g><g id="Group_10654" transform="translate(1355.71 565.814)"><circle cx="53.3" cy="53.3" r="53.3" id="Ellipse_3191" fill="#C2586E" transform="matrix(0.893787 -0.448492 0.448492 0.893787 0 47.81)"/><path d="M1047.12 523.126C1040.81 521.655 1034.01 524.455 1029.68 530.269 1025.37 524.469 1018.55 521.669 1012.24 523.126 1005.28 524.755 1000.69 530.798 1000.55 538.526 1000.16 560.312 1029.05 578.169 1029.35 578.255 1029.46 578.284 1029.57 578.299 1029.68 578.298 1029.79 578.298 1029.9 578.283 1030.01 578.255 1030.31 578.169 1059.18 560.283 1058.81 538.526 1058.67 530.783 1054.08 524.74 1047.12 523.126ZM1056.57 538.555C1056.9 557.469 1033.07 573.655 1029.68 575.855 1026.29 573.655 1002.47 557.484 1002.79 538.555 1002.91 531.884 1006.82 526.684 1012.75 525.298 1013.69 525.081 1014.65 524.97 1015.61 524.969 1020.68 524.969 1025.71 527.983 1028.74 532.826 1029.09 533.347 1029.8 533.483 1030.32 533.13 1030.44 533.049 1030.54 532.946 1030.62 532.826 1034.31 526.955 1040.72 523.926 1046.61 525.297 1052.54 526.683 1056.45 531.883 1056.57 538.555Z" id="Path_10900" fill="#FFFFFF" transform="translate(-958.161 -475.437)"/></g><g id="Group_10655" transform="translate(760.458 840.576)"><circle cx="70.158" cy="70.158" r="70.158" id="Ellipse_3192" fill="#5D6C82"/><path d="M730.275 700.96C706.519 700.961 687.261 720.219 687.262 743.975 687.263 767.731 706.521 786.989 730.277 786.988 754.032 786.987 773.289 767.73 773.29 743.975 773.261 720.231 754.019 700.989 730.275 700.96ZM751.775 768.246C746.775 776.16 739.646 781.56 731.661 783.46L731.661 762.06C738.798 762.289 745.743 764.425 751.775 768.246ZM731.661 759.289 731.661 745.346 758.59 745.346C758.412 752.507 756.562 759.527 753.19 765.846 746.722 761.789 739.291 759.526 731.66 759.289ZM754.046 769.8C755.432 770.817 756.749 771.924 757.989 773.114 753.091 777.796 747.084 781.159 740.532 782.886 746.053 779.713 750.697 775.216 754.046 769.8ZM754.117 718.1C750.792 712.727 746.188 708.261 740.717 705.1 747.2 706.851 753.141 710.197 758 714.832 756.777 716.003 755.48 717.094 754.118 718.1ZM758.588 742.586 731.66 742.586 731.66 728.646C739.313 728.421 746.763 726.141 753.232 722.046 756.583 728.387 758.417 735.419 758.589 742.589ZM731.659 725.886 731.659 704.486C739.731 706.4 746.888 711.772 751.845 719.658 745.797 723.508 738.825 725.66 731.66 725.889ZM770.488 745.358C770.155 754.934 766.417 764.078 759.945 771.144 758.538 769.804 757.045 768.558 755.474 767.415 759.152 760.632 761.164 753.072 761.345 745.358ZM770.488 742.587 761.345 742.587C761.172 734.864 759.175 727.291 755.516 720.487 757.067 719.357 758.542 718.126 759.93 716.801 766.41 723.864 770.155 733.009 770.489 742.589ZM708.673 719.644C713.63 711.73 720.802 706.344 728.887 704.458L728.887 725.887C721.712 725.654 714.731 723.499 708.674 719.646ZM728.887 728.658 728.887 742.6 701.946 742.6C702.105 735.425 703.934 728.387 707.289 722.043 713.767 726.142 721.227 728.427 728.889 728.66ZM706.4 718.089C705.046 717.088 703.757 716 702.543 714.832 707.353 710.248 713.223 706.925 719.629 705.161 714.228 708.322 709.685 712.762 706.4 718.089ZM690.057 742.589C690.389 733.008 694.134 723.862 700.617 716.8 701.994 718.121 703.458 719.349 705 720.474 701.346 727.284 699.353 734.861 699.186 742.588ZM706.457 769.818C709.772 775.179 714.348 779.646 719.786 782.832 713.316 781.078 707.385 777.74 702.529 773.118 703.772 771.94 705.084 770.838 706.46 769.818ZM701.943 745.361 728.886 745.361 728.886 759.3C721.241 759.529 713.797 761.804 707.329 765.886 703.97 759.553 702.128 752.526 701.946 745.36ZM728.886 762.061 728.886 783.49C720.872 781.619 713.743 776.218 708.729 768.261 714.776 764.435 721.737 762.294 728.889 762.06ZM700.6 771.146C694.118 764.086 690.379 754.939 690.06 745.36L699.189 745.36C699.372 753.077 701.379 760.64 705.046 767.432 703.484 768.57 701.998 769.811 700.6 771.146Z" id="Path_10901" fill="#FFFFFF" transform="translate(-660.117 -673.817)"/></g><g id="Group_10657" transform="translate(1511.64 321.754)"><circle cx="55.557" cy="55.557" r="55.557" id="Ellipse_3193" fill="#F5C06A" transform="matrix(0.785479 -0.618888 0.618888 0.785479 0 68.769)"/><g id="Group_10656" transform="translate(52.943 42.673)"><path d="M1165.49 371.775 1158.8 371.904 1158.68 365.175C1158.34 355.746 1150.42 348.375 1140.99 348.712 1131.78 349.041 1124.49 356.624 1124.52 365.846L1124.65 372.575 1118.33 372.704C1117.63 372.723 1117.07 373.31 1117.09 374.016 1117.09 374.017 1117.09 374.017 1117.09 374.018L1117.86 412.49C1117.87 413.199 1118.45 413.767 1119.16 413.761L1166.31 412.818C1167.01 412.799 1167.57 412.212 1167.55 411.506 1167.55 411.505 1167.55 411.505 1167.55 411.504L1166.78 373.032C1166.78 372.343 1166.23 371.78 1165.54 371.774 1165.52 371.774 1165.51 371.775 1165.49 371.775ZM1164.28 374.375 1164.99 410.261 1120.39 411.147 1119.68 375.261ZM1156.26 371.946 1127.2 372.517 1127.08 365.788C1127.07 357.761 1133.56 351.245 1141.59 351.233 1149.41 351.222 1155.83 357.393 1156.13 365.202Z" id="Path_10902" fill="#FFFFFF" transform="translate(-1117.09 -348.658)"/><path d="M1135.03 387.7C1135.75 387.688 1136.32 387.1 1136.3 386.386L1136.07 374.672C1136.06 373.958 1135.47 373.389 1134.76 373.4 1134.05 373.412 1133.48 374.001 1133.49 374.715L1133.72 386.429C1133.72 387.138 1134.31 387.707 1135.01 387.7 1135.02 387.7 1135.03 387.7 1135.03 387.7Z" id="Path_10903" fill="#FFFFFF" transform="translate(-1110.06 -338.054)"/></g></g><g id="Group_10659" transform="translate(97.847 781.361)"><circle cx="50.415" cy="50.415" r="50.415" id="Ellipse_3194" fill="#1D80B6" transform="matrix(0.244884 -0.969552 0.969552 0.244884 0 97.764)"/><g id="Group_10658" transform="translate(28.258 32.287)"><path d="M388.853 706.953C386.117 706.967 383.572 708.358 382.082 710.653L353.21 696.253C353.48 695.413 353.62 694.536 353.624 693.653 353.624 692.744 353.475 691.842 353.181 690.982L382.138 676.168C383.636 678.424 386.159 679.784 388.867 679.797 393.482 679.909 397.314 676.258 397.426 671.643 397.537 667.028 393.887 663.196 389.271 663.084 384.656 662.972 380.824 666.623 380.713 671.238 380.689 672.219 380.838 673.196 381.153 674.125L352.2 688.939C350.702 686.683 348.179 685.323 345.471 685.31 340.863 685.411 337.21 689.228 337.311 693.836 337.408 698.301 341.005 701.898 345.471 701.996 348.207 701.982 350.752 700.591 352.242 698.296L381.114 712.696C380.844 713.536 380.704 714.413 380.7 715.296 380.802 719.801 384.536 723.37 389.041 723.269 393.546 723.167 397.115 719.433 397.014 714.928 396.914 710.495 393.291 706.953 388.857 706.953ZM382.939 671.424C383.009 668.15 385.72 665.552 388.995 665.622 392.269 665.693 394.866 668.404 394.796 671.678 394.727 674.903 392.093 677.481 388.868 677.481 385.56 677.442 382.907 674.732 382.939 671.424ZM351.382 693.653C351.312 696.927 348.601 699.525 345.326 699.455 342.052 699.385 339.455 696.673 339.525 693.399 339.594 690.174 342.228 687.596 345.453 687.596 348.761 687.635 351.414 690.345 351.382 693.653ZM383.525 712.667 383.539 712.653 383.539 712.639C384.515 710.585 386.579 709.27 388.853 709.253 392.199 709.181 394.969 711.835 395.041 715.181 395.112 718.526 392.458 721.296 389.113 721.368 385.767 721.44 382.997 718.786 382.925 715.441 382.924 715.397 382.924 715.354 382.924 715.31 382.935 714.396 383.14 713.496 383.525 712.667Z" id="Path_10904" fill="#FFFFFF" transform="translate(-337.31 -663.11)"/></g></g><g id="Group_10663" transform="translate(552.513 759.076)"><circle cx="47.129" cy="47.129" r="47.129" id="Ellipse_3195" fill="#58C25C"/></g><g id="Group_10664" transform="translate(1171.49 716.8)"><circle cx="55.229" cy="55.229" r="55.229" id="Ellipse_3196" fill="#F5C06A" transform="matrix(0.374 -0.928 0.928 0.374 0 102.45)"/><path d="M922.7 631.9 922.7 672.186C922.704 672.847 923.239 673.382 923.9 673.386L984.629 673.386C985.29 673.382 985.825 672.847 985.829 672.186L985.829 631.9C985.828 631.413 985.535 630.974 985.086 630.786 984.638 630.604 984.125 630.699 983.772 631.029L968.558 645.872 955.129 631.086C954.895 630.829 954.563 630.684 954.215 630.686 953.888 630.689 953.577 630.829 953.358 631.072L939.729 645.872 924.729 631.029C924.383 630.686 923.865 630.585 923.415 630.772L923.415 630.772C922.982 630.982 922.705 631.419 922.7 631.9ZM938.929 648.471C939.162 648.697 939.476 648.82 939.8 648.814 940.126 648.807 940.436 648.668 940.657 648.428L954.243 633.685 967.614 648.428C967.834 648.671 968.143 648.816 968.471 648.828 968.797 648.846 969.116 648.721 969.342 648.485L983.4 634.768 983.4 670.982 925.086 670.982 925.086 634.8Z" id="Path_10907" fill="#FFFFFF" transform="translate(-882.362 -580.163)"/></g><g id="Group_10665" transform="translate(1460.96 653.189)"><circle cx="94.029" cy="94.029" r="94.029" id="Ellipse_3197" fill="#9974BA"/><path d="M1087.48 687.179 1154.31 687.179C1155.24 687.177 1155.99 686.423 1156 685.493L1156 662.408C1155.97 646.744 1145.58 632.987 1130.53 628.665 1144.54 622.988 1151.3 607.025 1145.62 593.011 1139.94 578.998 1123.98 572.24 1109.97 577.918 1095.95 583.595 1089.19 599.558 1094.87 613.571 1097.73 620.626 1103.4 626.172 1110.51 628.879 1103.51 631.075 1097.36 635.393 1092.92 641.236 1088.29 647.314 1085.79 654.75 1085.81 662.393L1085.81 685.479C1085.79 686.402 1086.53 687.163 1087.45 687.179 1087.46 687.179 1087.47 687.179 1087.48 687.179ZM1089.17 683.822 1089.17 662.422C1089.17 644.899 1103.37 630.693 1120.9 630.693 1138.42 630.693 1152.63 644.899 1152.63 662.422L1152.63 683.822ZM1120.24 627.322C1106.98 627.322 1096.24 616.577 1096.24 603.322 1096.24 590.067 1106.98 579.322 1120.24 579.322 1133.49 579.322 1144.24 590.067 1144.24 603.322 1144.22 616.569 1133.49 627.303 1120.24 627.322Z" id="Path_10908" fill="#FFFFFF" transform="translate(-1026.87 -540.007)"/></g><g id="Group_10666" transform="translate(936.327 417.748)"><circle cx="63.243" cy="63.243" r="63.243" id="Ellipse_3198" fill="#00A9AD" transform="translate(445 470)"/><path d="M1091.63 749.773 1067.48 749.773 1071.3 731.116 1091.63 731.116C1092.49 731.116 1093.2 730.412 1093.2 729.545 1093.2 728.677 1092.49 727.973 1091.63 727.973L1071.94 727.973 1076.24 706.973C1076.4 706.122 1075.84 705.301 1074.99 705.138 1074.16 704.979 1073.35 705.513 1073.17 706.344L1068.74 727.973 1050.6 727.973 1054.9 706.973C1055.06 706.122 1054.51 705.301 1053.65 705.138 1052.82 704.979 1052.01 705.513 1051.83 706.344L1047.4 727.973 1022.51 727.973C1021.65 727.973 1020.94 728.677 1020.94 729.544 1020.94 730.412 1021.65 731.116 1022.51 731.116L1046.76 731.116 1042.94 749.773 1022.51 749.773C1021.65 749.773 1020.94 750.477 1020.94 751.344 1020.94 752.212 1021.65 752.916 1022.51 752.916L1042.3 752.916 1037.97 774.073C1037.8 774.917 1038.34 775.741 1039.19 775.916 1039.29 775.94 1039.39 775.95 1039.5 775.945 1040.24 775.945 1040.88 775.418 1041.03 774.688L1045.48 752.902 1063.63 752.902 1059.3 774.059C1059.13 774.903 1059.67 775.727 1060.51 775.902 1060.62 775.926 1060.72 775.936 1060.83 775.931 1061.57 775.931 1062.21 775.405 1062.36 774.674L1066.81 752.888 1091.6 752.888C1092.47 752.89 1093.17 752.19 1093.17 751.325 1093.17 751.322 1093.17 751.32 1093.17 751.317 1093.18 750.474 1092.5 749.782 1091.66 749.773 1091.65 749.773 1091.64 749.773 1091.63 749.773ZM1046.13 749.773 1049.94 731.116 1068.08 731.116 1064.27 749.773Z" id="Path_10909" fill="#FFFFFF" transform="translate(-995.04 -676.215)"/></g><g id="Group_10667" transform="translate(1442.56 275.454)"><circle cx="57.315" cy="57.315" r="57.315" id="Ellipse_3199" fill="#1D80B6" transform="matrix(0.229812 -0.973235 0.973235 0.229812 0 111.557)"/><path d="M1123.8 315.63 1059.93 315.63C1059.21 315.63 1058.63 316.212 1058.63 316.93L1058.63 359.859C1058.63 360.577 1059.21 361.159 1059.93 361.159L1079.36 361.159 1085.44 376.588C1085.64 377.089 1086.12 377.418 1086.66 377.417L1086.69 377.417C1087.23 377.407 1087.71 377.059 1087.89 376.546L1093.23 361.174 1123.8 361.174C1124.52 361.174 1125.1 360.592 1125.1 359.874L1125.1 316.944C1125.1 316.222 1124.52 315.634 1123.8 315.63ZM1122.5 358.559 1092.3 358.559C1091.75 358.561 1091.26 358.91 1091.07 359.43L1086.58 372.359 1081.47 359.388C1081.28 358.887 1080.79 358.558 1080.26 358.559L1061.24 358.559 1061.24 318.244 1122.51 318.244 1122.51 358.559Z" id="Path_10910" fill="#FFFFFF" transform="translate(-1020.12 -273.84)"/></g><g id="Group_10669" transform="translate(852.773 703.553)"><circle cx="52.743" cy="52.743" r="52.743" id="Ellipse_3200" fill="#00A9AD" transform="matrix(0.233 -0.972 0.972 0.233 0 102.575)"/><g id="Group_10668" transform="translate(42.512 28.466)"><path d="M789.89 605.97 750.976 605.97C750.432 605.971 749.991 606.412 749.99 606.956L749.99 675.385C749.991 675.929 750.432 676.37 750.976 676.371L789.89 676.371C790.434 676.37 790.875 675.929 790.876 675.385L790.876 606.956C790.875 606.412 790.434 605.971 789.89 605.97ZM788.89 674.385 751.961 674.385 751.961 664.442 788.89 664.442ZM788.89 662.485 751.961 662.485C751.975 662.456 751.961 662.414 751.961 662.371L751.961 607.956 788.89 607.956 788.89 662.485Z" id="Path_10911" fill="#F6F6F6" transform="translate(-749.99 -605.97)"/><rect x="0" y="0" width="8.086" height="1.986" id="Rectangle_1538" fill="#F6F6F6" transform="translate(16.4 62.443)"/></g></g><g id="Group_10670" transform="translate(979.795 872.334)"><circle cx="51.557" cy="51.557" r="51.557" id="Ellipse_3201" fill="#99CEAE"/><path d="M863.993 727.08C863.988 727.045 863.978 727.012 863.964 726.98 863.95 726.937 863.95 726.909 863.935 726.866L863.892 726.78C863.879 726.744 863.859 726.71 863.835 726.68 863.816 726.648 863.792 726.619 863.764 726.594 863.75 726.58 863.735 726.551 863.721 726.537L863.707 726.523C863.678 726.494 863.65 726.48 863.621 726.452 863.592 726.424 863.564 726.409 863.535 726.381 863.509 726.37 863.486 726.355 863.464 726.338 863.435 726.324 863.392 726.295 863.364 726.281 863.336 726.267 863.307 726.267 863.278 726.252 863.249 726.237 863.207 726.223 863.164 726.209 863.121 726.195 863.107 726.195 863.078 726.195 863.049 726.195 863.007 726.181 862.978 726.181L810.764 726.181C810.735 726.181 810.692 726.195 810.664 726.195 810.635 726.193 810.605 726.197 810.578 726.209L810.449 726.252C810.42 726.266 810.406 726.266 810.378 726.281 810.339 726.297 810.301 726.316 810.264 726.338 810.25 726.352 810.221 726.367 810.207 726.381 810.193 726.395 810.136 726.438 810.107 726.467 810.078 726.496 810.064 726.51 810.05 726.524L810.036 726.538C810.022 726.565 810.002 726.589 809.979 726.609 809.955 726.634 809.936 726.663 809.922 726.695L809.879 726.781C809.865 726.81 809.85 726.852 809.836 726.881 809.822 726.91 809.822 726.938 809.807 726.967 809.791 727.003 809.781 727.042 809.778 727.081 809.78 727.11 809.776 727.14 809.764 727.167 809.764 727.196 809.75 727.224 809.75 727.267L809.75 765.38C809.749 765.971 810.228 766.45 810.819 766.451 810.82 766.451 810.82 766.451 810.821 766.451L862.95 766.451C863.541 766.452 864.02 765.973 864.021 765.382 864.021 765.381 864.021 765.381 864.021 765.38L864.021 727.266C864.025 727.241 864.02 727.216 864.007 727.195 863.996 727.158 863.991 727.119 863.993 727.08ZM811.878 729.723 836.135 752.137C836.546 752.518 837.181 752.518 837.592 752.137L861.849 729.723 861.849 764.295 811.879 764.295ZM813.564 728.352 860.193 728.352 836.879 749.895Z" id="Path_10912" fill="#FFFFFF" transform="translate(-785.307 -694.765)"/></g><text id="Tree" fill="#FFFFFF" font-family="Poppins-SemiBold,Poppins" font-weight="600" font-size="29" transform="translate(567.465 816.195)"><tspan x="0" y="0">Tree</tspan></text></svg>